<?xml version="1.0" encoding="UTF-8"?>
<!DOCTYPE svg PUBLIC "-//W3C//DTD SVG 1.1//EN" "http://www.w3.org/Graphics/SVG/1.1/DTD/svg11.dtd">
<!-- Creator: CorelDRAW -->
<svg xmlns="http://www.w3.org/2000/svg" xml:space="preserve" width="7.3848mm" height="7.7056mm" version="1.1" style="shape-rendering:geometricPrecision; text-rendering:geometricPrecision; image-rendering:optimizeQuality; fill-rule:evenodd; clip-rule:evenodd"
viewBox="0 0 297.14 310.05"
 xmlns:xodm="http://www.corel.com/coreldraw/odm/2003">
 <defs>
  <style type="text/css">
   <![CDATA[
    .fil0 {fill:#2B2A29;fill-rule:nonzero}
   ]]>
  </style>
 </defs>
 <g id="Layer_x0020_1">
  <metadata id="CorelCorpID_0Corel-Layer"/>
  <path class="fil0" d="M261.44 43.66c-63.45,236.28 -258.4,249.1 -261.38,261.97 -4.04,17.69 192.9,-10.49 272.08,-219.17 0.93,-2.46 1.92,-4.93 2.94,-7.55 2.68,0.79 1.87,3.25 2.05,4.96 2.2,20.27 4.27,40.59 6.36,60.91 0.27,2.74 0.8,5.21 4.46,4.47 3.16,-0.64 5.61,-2.85 6.38,-5.83 1.12,-4.32 2.08,-8.76 2.24,-12.93 1.46,-38.58 -0.11,-76.31 -1.75,-114.02 -0.3,-6.87 -5.65,-9.91 -7.52,-15.49 -0.41,-1.24 -2.07,-1.25 -3.52,-0.35 -9.83,6.13 -20.17,10.85 -29.52,18.44 -19.74,15.99 -39.36,32.07 -57.7,49.81 -7.15,6.91 -13.44,14.36 -18.43,22.72 -1.18,1.97 -2.89,3.91 -1.64,5.74 1.3,1.9 3.73,0.46 5.68,-0.16 9.13,-2.88 17.79,-7.48 26.07,-13.33 15.59,-11.01 30.56,-22.97 45.48,-35 2.17,-1.74 4.1,-4.01 7.71,-5.18z"/>
 </g>
</svg>
