<?xml version="1.0" encoding="UTF-8"?>
<!DOCTYPE svg PUBLIC "-//W3C//DTD SVG 1.1//EN" "http://www.w3.org/Graphics/SVG/1.1/DTD/svg11.dtd">
<!-- Creator: CorelDRAW -->
<svg xmlns="http://www.w3.org/2000/svg" xml:space="preserve" width="423.51mm" height="247.297mm" version="1.1" style="shape-rendering:geometricPrecision; text-rendering:geometricPrecision; image-rendering:optimizeQuality; fill-rule:evenodd; clip-rule:evenodd"
viewBox="0 0 4093.26 2390.15"
 xmlns:xlink="http://www.w3.org/1999/xlink"
 xmlns:xodm="http://www.corel.com/coreldraw/odm/2003">
 <defs>
  <style type="text/css">
   <![CDATA[
    .str1 {stroke:#4DCDC3;stroke-width:3.41;stroke-miterlimit:10}
    .str2 {stroke:#E95050;stroke-width:3.41;stroke-linecap:round;stroke-linejoin:round;stroke-miterlimit:10}
    .str3 {stroke:#FEDA3F;stroke-width:3.41;stroke-linecap:round;stroke-linejoin:round;stroke-miterlimit:10}
    .str0 {stroke:#4DCDC3;stroke-width:3.41;stroke-linecap:round;stroke-linejoin:round;stroke-miterlimit:10}
    .fil6 {fill:none;fill-rule:nonzero}
    .fil0 {fill:#F08421;fill-rule:nonzero}
    .fil5 {fill:#E95050;fill-rule:nonzero}
    .fil2 {fill:#FEDA3F;fill-rule:nonzero}
    .fil1 {fill:#A2D6D8;fill-rule:nonzero}
    .fil4 {fill:#195390;fill-rule:nonzero}
    .fil3 {fill:#4DCDC3;fill-rule:nonzero}
   ]]>
  </style>
 </defs>
 <g id="Layer_x0020_1">
  <metadata id="CorelCorpID_0Corel-Layer"/>
  <g id="_1314722160736">
   <path class="fil0" d="M2892.46 613.98c4.27,-5.42 12.13,-6.35 17.55,-2.08 5.43,4.27 6.36,12.13 2.09,17.55 -4.27,5.43 -12.13,6.36 -17.56,2.08 -5.42,-4.27 -6.35,-12.13 -2.08,-17.55z"/>
   <path class="fil0" d="M2815.18 553.11c4.27,-5.42 12.13,-6.35 17.55,-2.08 5.43,4.27 6.36,12.13 2.09,17.56 -4.27,5.42 -12.13,6.35 -17.55,2.08 -5.42,-4.27 -6.35,-12.13 -2.08,-17.56z"/>
   <path class="fil0" d="M2737.91 492.25c4.27,-5.42 12.13,-6.35 17.55,-2.08 5.43,4.27 6.36,12.13 2.09,17.55 -4.27,5.43 -12.13,6.36 -17.55,2.09 -5.42,-4.27 -6.36,-12.13 -2.08,-17.55z"/>
   <path class="fil0" d="M2660.63 431.39c4.27,-5.43 12.13,-6.36 17.56,-2.09 5.43,4.27 6.36,12.13 2.08,17.56 -4.27,5.42 -12.13,6.35 -17.55,2.08 -5.42,-4.27 -6.36,-12.13 -2.09,-17.55z"/>
   <path class="fil0" d="M2583.35 370.52c4.27,-5.42 12.13,-6.35 17.55,-2.08 5.43,4.27 6.36,12.13 2.08,17.56 -4.27,5.42 -12.13,6.35 -17.55,2.08 -5.43,-4.27 -6.36,-12.13 -2.09,-17.56z"/>
   <path class="fil0" d="M2506.08 309.66c4.27,-5.43 12.13,-6.36 17.56,-2.08 5.42,4.27 6.35,12.13 2.08,17.55 -4.27,5.43 -12.13,6.36 -17.55,2.09 -5.43,-4.27 -6.36,-12.13 -2.09,-17.55z"/>
   <path class="fil0" d="M2428.8 248.8c4.27,-5.42 12.13,-6.35 17.56,-2.08 5.42,4.27 6.35,12.13 2.08,17.55 -4.27,5.43 -12.13,6.36 -17.55,2.09 -5.42,-4.27 -6.35,-12.13 -2.08,-17.56z"/>
   <path class="fil0" d="M2351.53 187.93c4.27,-5.43 12.13,-6.36 17.55,-2.08 5.43,4.27 6.36,12.13 2.09,17.55 -4.27,5.43 -12.13,6.36 -17.56,2.09 -5.42,-4.27 -6.35,-12.13 -2.08,-17.56z"/>
   <path class="fil0" d="M2274.25 127.07c4.27,-5.42 12.13,-6.35 17.55,-2.08 5.43,4.27 6.36,12.13 2.09,17.56 -4.27,5.42 -12.13,6.35 -17.56,2.08 -5.43,-4.27 -6.36,-12.13 -2.08,-17.56z"/>
   <path class="fil0" d="M2196.98 66.2c4.27,-5.42 12.13,-6.35 17.55,-2.08 5.43,4.27 6.36,12.13 2.09,17.55 -4.27,5.43 -12.13,6.36 -17.55,2.09 -5.43,-4.27 -6.36,-12.13 -2.08,-17.56z"/>
   <path class="fil0" d="M2119.7 5.34c1.27,-1.62 2.87,-2.84 4.62,-3.64l10.39 0c0.89,0.4 1.74,0.92 2.54,1.55 5.42,4.27 6.35,12.13 2.08,17.55 -4.27,5.42 -12.13,6.36 -17.55,2.08 -5.43,-4.27 -6.36,-12.13 -2.08,-17.55z"/>
  </g>
  <g id="_1314722118064">
   <path class="fil0" d="M2967.11 519.2c4.27,-5.43 12.13,-6.36 17.56,-2.09 5.42,4.27 6.35,12.13 2.08,17.55 -4.27,5.42 -12.13,6.36 -17.56,2.08 -5.42,-4.27 -6.35,-12.13 -2.08,-17.55z"/>
   <path class="fil0" d="M2889.83 458.33c4.27,-5.42 12.13,-6.35 17.55,-2.08 5.43,4.27 6.36,12.13 2.09,17.55 -4.27,5.42 -12.13,6.35 -17.55,2.08 -5.42,-4.27 -6.35,-12.13 -2.08,-17.56z"/>
   <path class="fil0" d="M2812.56 397.47c4.27,-5.43 12.13,-6.36 17.55,-2.09 5.43,4.27 6.36,12.13 2.09,17.56 -4.27,5.43 -12.13,6.36 -17.56,2.08 -5.42,-4.27 -6.35,-12.13 -2.08,-17.55z"/>
   <path class="fil0" d="M2735.28 336.61c4.27,-5.42 12.13,-6.35 17.55,-2.08 5.43,4.27 6.36,12.13 2.09,17.55 -4.27,5.42 -12.13,6.35 -17.56,2.08 -5.42,-4.27 -6.35,-12.13 -2.08,-17.56z"/>
   <path class="fil0" d="M2658 275.74c4.27,-5.43 12.13,-6.36 17.56,-2.08 5.43,4.27 6.36,12.13 2.08,17.55 -4.27,5.43 -12.13,6.36 -17.55,2.09 -5.42,-4.27 -6.35,-12.13 -2.09,-17.56z"/>
   <path class="fil0" d="M2580.73 214.88c4.27,-5.43 12.13,-6.36 17.56,-2.09 5.43,4.27 6.36,12.13 2.08,17.56 -4.27,5.42 -12.13,6.35 -17.55,2.08 -5.43,-4.27 -6.36,-12.13 -2.09,-17.55z"/>
   <path class="fil0" d="M2503.45 154.02c4.27,-5.42 12.13,-6.35 17.55,-2.08 5.42,4.27 6.35,12.13 2.08,17.55 -4.27,5.43 -12.13,6.36 -17.55,2.09 -5.43,-4.27 -6.36,-12.13 -2.09,-17.56z"/>
   <path class="fil0" d="M2426.18 93.15c4.27,-5.43 12.13,-6.36 17.56,-2.08 5.42,4.27 6.35,12.13 2.08,17.55 -4.27,5.43 -12.13,6.36 -17.56,2.09 -5.42,-4.27 -6.35,-12.13 -2.08,-17.56z"/>
   <path class="fil0" d="M2348.9 32.29c4.27,-5.42 12.13,-6.35 17.56,-2.08 5.42,4.27 6.35,12.13 2.08,17.55 -4.27,5.43 -12.13,6.36 -17.55,2.09 -5.42,-4.27 -6.35,-12.13 -2.08,-17.55z"/>
   <g>
    <g>
     <g>
      <path class="fil0" d="M2117.08 2370.55c4.27,-5.42 12.13,-6.35 17.55,-2.08 5.42,4.27 6.35,12.13 2.08,17.55 -0.75,0.95 -1.6,1.76 -2.53,2.42l-14.57 0 -0.45 -0.34c-5.43,-4.27 -6.36,-12.13 -2.08,-17.55z"/>
     </g>
    </g>
    <g>
     <path class="fil0" d="M3041.76 424.42c4.27,-5.43 12.13,-6.36 17.56,-2.09 5.42,4.27 6.35,12.13 2.08,17.56 -4.27,5.42 -12.13,6.36 -17.55,2.08 -5.43,-4.27 -6.36,-12.13 -2.09,-17.55z"/>
     <path class="fil0" d="M2964.48 363.56c4.27,-5.42 12.13,-6.35 17.55,-2.08 5.42,4.27 6.35,12.13 2.08,17.55 -4.27,5.43 -12.13,6.36 -17.55,2.08 -5.43,-4.27 -6.36,-12.13 -2.09,-17.55z"/>
     <path class="fil0" d="M2887.21 302.69c4.27,-5.43 12.13,-6.36 17.56,-2.09 5.42,4.27 6.35,12.13 2.08,17.56 -4.27,5.42 -12.13,6.35 -17.55,2.08 -5.43,-4.27 -6.36,-12.13 -2.09,-17.55z"/>
     <path class="fil0" d="M2809.93 241.83c4.27,-5.42 12.13,-6.35 17.56,-2.08 5.42,4.27 6.35,12.13 2.08,17.56 -4.27,5.42 -12.13,6.35 -17.55,2.08 -5.42,-4.27 -6.35,-12.13 -2.08,-17.56z"/>
     <path class="fil0" d="M2732.66 180.97c4.27,-5.43 12.13,-6.36 17.55,-2.08 5.42,4.27 6.35,12.13 2.08,17.55 -4.27,5.43 -12.13,6.36 -17.56,2.08 -5.42,-4.27 -6.35,-12.13 -2.08,-17.55z"/>
     <path class="fil0" d="M2655.38 120.1c4.27,-5.42 12.13,-6.35 17.55,-2.08 5.43,4.27 6.36,12.13 2.08,17.56 -4.27,5.42 -12.13,6.35 -17.55,2.08 -5.43,-4.27 -6.36,-12.13 -2.09,-17.56z"/>
     <path class="fil0" d="M2578.1 59.24c4.27,-5.43 12.13,-6.36 17.56,-2.08 5.43,4.27 6.36,12.13 2.08,17.55 -4.27,5.43 -12.13,6.36 -17.55,2.09 -5.43,-4.27 -6.36,-12.13 -2.09,-17.56z"/>
     <path class="fil0" d="M2522.35 1.7c1.48,3.96 0.92,8.57 -1.88,12.14 -4.27,5.42 -12.13,6.35 -17.55,2.08 -4.39,-3.46 -5.84,-9.26 -3.97,-14.22l23.41 0z"/>
     <g>
      <path class="fil0" d="M2269 2336.63c4.27,-5.42 12.13,-6.35 17.55,-2.08 5.43,4.27 6.36,12.13 2.09,17.55 -4.27,5.42 -12.13,6.35 -17.55,2.08 -5.42,-4.27 -6.35,-12.13 -2.08,-17.56z"/>
      <path class="fil0" d="M2191.73 2275.77c4.27,-5.42 12.13,-6.35 17.55,-2.09 5.43,4.27 6.36,12.13 2.09,17.55 -4.27,5.43 -12.13,6.36 -17.56,2.08 -5.42,-4.27 -6.36,-12.13 -2.08,-17.55z"/>
     </g>
    </g>
    <g>
     <path class="fil0" d="M3116.41 329.64c4.27,-5.42 12.13,-6.35 17.55,-2.08 5.42,4.27 6.36,12.13 2.09,17.55 -4.27,5.42 -12.13,6.35 -17.56,2.08 -5.43,-4.27 -6.36,-12.13 -2.08,-17.56z"/>
     <path class="fil0" d="M3039.13 268.78c4.27,-5.43 12.13,-6.36 17.56,-2.09 5.42,4.27 6.36,12.13 2.08,17.56 -4.27,5.43 -12.13,6.36 -17.55,2.08 -5.43,-4.27 -6.36,-12.13 -2.09,-17.55z"/>
     <path class="fil0" d="M2961.86 207.91c4.27,-5.43 12.13,-6.36 17.56,-2.09 5.42,4.27 6.36,12.13 2.08,17.55 -4.27,5.42 -12.13,6.35 -17.55,2.08 -5.43,-4.27 -6.36,-12.13 -2.09,-17.55z"/>
     <path class="fil0" d="M2884.58 147.05c4.27,-5.42 12.13,-6.35 17.55,-2.08 5.42,4.27 6.35,12.13 2.08,17.55 -4.27,5.43 -12.13,6.36 -17.55,2.09 -5.43,-4.27 -6.36,-12.13 -2.09,-17.56z"/>
     <path class="fil0" d="M2807.31 86.18c4.27,-5.42 12.13,-6.35 17.56,-2.08 5.42,4.27 6.35,12.13 2.08,17.56 -4.27,5.42 -12.13,6.35 -17.56,2.08 -5.42,-4.27 -6.35,-12.13 -2.08,-17.55z"/>
     <path class="fil0" d="M2730.03 25.32c4.27,-5.42 12.13,-6.35 17.56,-2.08 5.42,4.27 6.35,12.13 2.08,17.55 -4.27,5.42 -12.13,6.35 -17.55,2.08 -5.42,-4.27 -6.35,-12.13 -2.08,-17.56z"/>
     <g>
      <path class="fil0" d="M2498.2 2363.58c4.27,-5.42 12.13,-6.36 17.56,-2.08 5.42,4.27 6.35,12.13 2.08,17.55 -4.27,5.43 -12.13,6.36 -17.55,2.09 -5.43,-4.27 -6.36,-12.13 -2.09,-17.55z"/>
      <path class="fil0" d="M2420.93 2302.72c4.27,-5.43 12.13,-6.36 17.56,-2.09 5.42,4.27 6.35,12.13 2.08,17.56 -4.27,5.42 -12.13,6.35 -17.55,2.08 -5.42,-4.27 -6.35,-12.13 -2.08,-17.55z"/>
      <path class="fil0" d="M2343.65 2241.85c4.27,-5.42 12.13,-6.35 17.55,-2.08 5.42,4.27 6.35,12.13 2.08,17.55 -4.27,5.43 -12.13,6.36 -17.56,2.09 -5.42,-4.27 -6.35,-12.13 -2.08,-17.55z"/>
      <path class="fil0" d="M2266.38 2180.99c4.27,-5.43 12.13,-6.36 17.55,-2.09 5.43,4.27 6.36,12.13 2.09,17.56 -4.27,5.42 -12.13,6.36 -17.56,2.08 -5.42,-4.27 -6.36,-12.13 -2.08,-17.55z"/>
     </g>
    </g>
    <g>
     <path class="fil0" d="M3742.49 1283.48c4.27,-5.42 12.13,-6.35 17.55,-2.08 5.42,4.27 6.36,12.13 2.08,17.55 -4.27,5.42 -12.13,6.35 -17.55,2.08 -5.43,-4.27 -6.36,-12.13 -2.09,-17.56z"/>
     <path class="fil0" d="M3665.21 1222.62c4.27,-5.42 12.13,-6.35 17.56,-2.08 5.42,4.27 6.35,12.13 2.08,17.55 -4.27,5.43 -12.13,6.36 -17.55,2.09 -5.43,-4.27 -6.36,-12.13 -2.09,-17.56z"/>
     <path class="fil0" d="M3587.94 1161.75c4.27,-5.42 12.13,-6.35 17.56,-2.08 5.42,4.27 6.35,12.13 2.08,17.56 -4.27,5.42 -12.13,6.35 -17.55,2.08 -5.43,-4.27 -6.36,-12.13 -2.09,-17.55z"/>
     <path class="fil0" d="M3510.66 1100.89c4.27,-5.42 12.13,-6.35 17.55,-2.08 5.42,4.27 6.35,12.13 2.08,17.55 -4.27,5.43 -12.13,6.36 -17.56,2.09 -5.42,-4.27 -6.35,-12.13 -2.08,-17.56z"/>
     <path class="fil0" d="M3433.39 1040.03c4.27,-5.43 12.13,-6.36 17.56,-2.08 5.42,4.27 6.35,12.13 2.08,17.55 -4.27,5.42 -12.13,6.35 -17.56,2.08 -5.42,-4.27 -6.35,-12.13 -2.08,-17.55z"/>
     <path class="fil0" d="M3356.11 979.16c4.27,-5.42 12.13,-6.35 17.55,-2.08 5.43,4.27 6.36,12.13 2.09,17.55 -4.27,5.43 -12.13,6.36 -17.55,2.09 -5.42,-4.27 -6.35,-12.13 -2.08,-17.55z"/>
     <path class="fil0" d="M3278.84 918.3c4.27,-5.43 12.13,-6.36 17.55,-2.08 5.43,4.27 6.36,12.13 2.09,17.55 -4.27,5.43 -12.13,6.36 -17.56,2.09 -5.43,-4.27 -6.36,-12.13 -2.08,-17.56z"/>
     <path class="fil0" d="M3201.56 857.43c4.27,-5.42 12.13,-6.35 17.55,-2.08 5.43,4.27 6.36,12.13 2.09,17.56 -4.27,5.42 -12.13,6.35 -17.56,2.08 -5.43,-4.27 -6.36,-12.13 -2.08,-17.55z"/>
     <path class="fil0" d="M3124.29 796.57c4.27,-5.42 12.13,-6.36 17.55,-2.08 5.42,4.27 6.35,12.13 2.08,17.55 -4.27,5.43 -12.13,6.36 -17.55,2.09 -5.43,-4.27 -6.36,-12.13 -2.08,-17.55z"/>
     <path class="fil0" d="M3047.01 735.71c4.27,-5.43 12.13,-6.36 17.56,-2.09 5.42,4.27 6.35,12.13 2.08,17.56 -4.27,5.42 -12.13,6.36 -17.55,2.08 -5.42,-4.27 -6.35,-12.13 -2.08,-17.55z"/>
     <path class="fil0" d="M2969.73 674.84c4.27,-5.42 12.13,-6.35 17.55,-2.08 5.42,4.27 6.35,12.13 2.08,17.56 -4.27,5.42 -12.13,6.35 -17.56,2.08 -5.42,-4.27 -6.35,-12.13 -2.08,-17.55z"/>
     <path class="fil0" d="M2892.46 613.98c4.27,-5.42 12.13,-6.35 17.55,-2.08 5.43,4.27 6.36,12.13 2.09,17.55 -4.27,5.43 -12.13,6.36 -17.56,2.08 -5.42,-4.27 -6.35,-12.13 -2.08,-17.55z"/>
    </g>
    <g>
     <path class="fil0" d="M3817.14 1188.7c4.27,-5.42 12.13,-6.35 17.55,-2.08 5.43,4.27 6.36,12.13 2.08,17.56 -4.27,5.42 -12.13,6.35 -17.55,2.08 -5.42,-4.27 -6.36,-12.13 -2.08,-17.56z"/>
     <path class="fil0" d="M3739.86 1127.84c4.27,-5.43 12.13,-6.36 17.56,-2.09 5.43,4.27 6.36,12.13 2.08,17.55 -4.27,5.43 -12.13,6.36 -17.55,2.08 -5.43,-4.27 -6.36,-12.13 -2.09,-17.55z"/>
     <path class="fil0" d="M3662.59 1066.97c4.27,-5.42 12.13,-6.35 17.55,-2.08 5.43,4.27 6.36,12.13 2.08,17.56 -4.27,5.42 -12.13,6.35 -17.55,2.08 -5.43,-4.27 -6.36,-12.13 -2.09,-17.56z"/>
     <path class="fil0" d="M3585.31 1006.11c4.27,-5.43 12.13,-6.36 17.56,-2.08 5.42,4.27 6.35,12.13 2.08,17.55 -4.27,5.43 -12.13,6.36 -17.55,2.09 -5.43,-4.27 -6.36,-12.13 -2.09,-17.56z"/>
     <path class="fil0" d="M3508.04 945.25c4.27,-5.43 12.13,-6.36 17.56,-2.09 5.42,4.27 6.35,12.13 2.08,17.55 -4.27,5.42 -12.13,6.35 -17.55,2.08 -5.42,-4.27 -6.35,-12.13 -2.08,-17.55z"/>
     <path class="fil0" d="M3430.76 884.38c4.27,-5.43 12.13,-6.36 17.55,-2.08 5.42,4.27 6.35,12.13 2.08,17.55 -4.27,5.43 -12.13,6.36 -17.56,2.09 -5.42,-4.27 -6.35,-12.13 -2.08,-17.56z"/>
     <path class="fil0" d="M3353.49 823.52c4.27,-5.43 12.13,-6.36 17.55,-2.08 5.43,4.27 6.36,12.13 2.09,17.55 -4.27,5.42 -12.13,6.35 -17.56,2.09 -5.42,-4.27 -6.35,-12.13 -2.08,-17.56z"/>
     <path class="fil0" d="M3276.21 762.65c4.27,-5.42 12.13,-6.35 17.55,-2.08 5.43,4.27 6.36,12.13 2.09,17.55 -4.27,5.43 -12.13,6.36 -17.55,2.09 -5.43,-4.27 -6.36,-12.13 -2.08,-17.56z"/>
     <path class="fil0" d="M3198.94 701.79c4.27,-5.42 12.13,-6.36 17.55,-2.08 5.43,4.27 6.36,12.13 2.09,17.55 -4.27,5.43 -12.13,6.36 -17.56,2.09 -5.43,-4.27 -6.36,-12.13 -2.08,-17.56z"/>
     <path class="fil0" d="M3121.66 640.93c4.27,-5.43 12.13,-6.36 17.55,-2.09 5.42,4.27 6.35,12.13 2.08,17.55 -4.27,5.42 -12.13,6.35 -17.55,2.08 -5.43,-4.27 -6.36,-12.13 -2.08,-17.55z"/>
     <path class="fil0" d="M3044.38 580.06c4.27,-5.42 12.13,-6.35 17.55,-2.08 5.42,4.27 6.35,12.13 2.08,17.55 -4.27,5.43 -12.13,6.36 -17.56,2.09 -5.42,-4.27 -6.35,-12.13 -2.08,-17.56z"/>
     <path class="fil0" d="M2967.11 519.2c4.27,-5.43 12.13,-6.36 17.56,-2.09 5.42,4.27 6.35,12.13 2.08,17.55 -4.27,5.42 -12.13,6.36 -17.56,2.08 -5.42,-4.27 -6.35,-12.13 -2.08,-17.55z"/>
    </g>
    <g>
     <path class="fil0" d="M3891.79 1093.92c4.27,-5.42 12.13,-6.35 17.55,-2.09 5.43,4.27 6.36,12.13 2.09,17.56 -4.27,5.43 -12.13,6.36 -17.56,2.08 -5.42,-4.27 -6.35,-12.13 -2.08,-17.55z"/>
     <path class="fil0" d="M3814.52 1033.06c4.27,-5.43 12.13,-6.36 17.55,-2.09 5.43,4.27 6.36,12.13 2.08,17.56 -4.27,5.43 -12.13,6.36 -17.55,2.08 -5.42,-4.27 -6.35,-12.13 -2.08,-17.55z"/>
     <path class="fil0" d="M3737.24 972.19c4.27,-5.42 12.13,-6.35 17.56,-2.08 5.43,4.27 6.36,12.13 2.08,17.56 -4.27,5.42 -12.13,6.35 -17.55,2.08 -5.43,-4.27 -6.36,-12.13 -2.09,-17.55z"/>
     <path class="fil0" d="M3659.96 911.33c4.27,-5.43 12.13,-6.36 17.56,-2.09 5.43,4.27 6.36,12.13 2.08,17.56 -4.27,5.43 -12.13,6.36 -17.55,2.08 -5.43,-4.27 -6.36,-12.13 -2.09,-17.55z"/>
     <path class="fil0" d="M3582.69 850.46c4.27,-5.42 12.13,-6.35 17.55,-2.08 5.42,4.27 6.35,12.13 2.08,17.56 -4.27,5.42 -12.13,6.35 -17.55,2.08 -5.43,-4.27 -6.36,-12.13 -2.09,-17.55z"/>
     <path class="fil0" d="M3505.41 789.6c4.27,-5.43 12.13,-6.36 17.55,-2.08 5.42,4.27 6.35,12.13 2.08,17.55 -4.27,5.42 -12.13,6.35 -17.56,2.09 -5.42,-4.27 -6.35,-12.13 -2.08,-17.56z"/>
     <path class="fil0" d="M3428.14 728.74c4.27,-5.42 12.13,-6.35 17.56,-2.08 5.42,4.27 6.35,12.13 2.08,17.56 -4.27,5.42 -12.13,6.35 -17.55,2.08 -5.42,-4.27 -6.35,-12.13 -2.08,-17.55z"/>
     <path class="fil0" d="M3350.86 667.87c4.27,-5.42 12.13,-6.36 17.55,-2.08 5.43,4.27 6.36,12.13 2.09,17.55 -4.27,5.43 -12.13,6.36 -17.56,2.09 -5.42,-4.27 -6.35,-12.13 -2.08,-17.55z"/>
     <path class="fil0" d="M3273.59 607.01c4.27,-5.43 12.13,-6.36 17.55,-2.09 5.43,4.27 6.36,12.13 2.09,17.56 -4.27,5.42 -12.13,6.35 -17.56,2.08 -5.42,-4.27 -6.35,-12.13 -2.08,-17.55z"/>
     <path class="fil0" d="M3196.31 546.15c4.27,-5.42 12.13,-6.35 17.55,-2.08 5.43,4.27 6.36,12.13 2.09,17.55 -4.27,5.43 -12.13,6.36 -17.55,2.09 -5.43,-4.27 -6.36,-12.13 -2.08,-17.55z"/>
     <path class="fil0" d="M3119.04 485.28c4.27,-5.43 12.13,-6.36 17.55,-2.09 5.42,4.27 6.35,12.13 2.08,17.56 -4.27,5.43 -12.13,6.36 -17.55,2.08 -5.43,-4.27 -6.36,-12.13 -2.08,-17.55z"/>
     <path class="fil0" d="M3041.76 424.42c4.27,-5.43 12.13,-6.36 17.56,-2.09 5.42,4.27 6.35,12.13 2.08,17.56 -4.27,5.42 -12.13,6.36 -17.55,2.08 -5.43,-4.27 -6.36,-12.13 -2.09,-17.55z"/>
    </g>
    <g>
     <path class="fil0" d="M3966.44 999.14c4.27,-5.43 12.13,-6.36 17.56,-2.09 5.42,4.27 6.35,12.13 2.08,17.55 -4.27,5.43 -12.13,6.36 -17.56,2.08 -5.42,-4.27 -6.35,-12.13 -2.08,-17.55z"/>
     <path class="fil0" d="M3889.17 938.27c4.27,-5.42 12.13,-6.35 17.56,-2.08 5.42,4.27 6.35,12.13 2.08,17.56 -4.27,5.42 -12.13,6.35 -17.55,2.08 -5.42,-4.27 -6.35,-12.13 -2.08,-17.56z"/>
     <path class="fil0" d="M3811.89 877.41c4.27,-5.42 12.13,-6.35 17.55,-2.08 5.43,4.27 6.36,12.13 2.08,17.55 -4.27,5.43 -12.13,6.36 -17.55,2.09 -5.42,-4.27 -6.35,-12.13 -2.08,-17.56z"/>
     <path class="fil0" d="M3734.61 816.55c4.27,-5.42 12.13,-6.35 17.56,-2.08 5.43,4.27 6.36,12.13 2.08,17.55 -4.27,5.42 -12.13,6.35 -17.55,2.08 -5.43,-4.27 -6.36,-12.13 -2.09,-17.56z"/>
     <path class="fil0" d="M3657.34 755.68c4.27,-5.42 12.13,-6.35 17.55,-2.08 5.43,4.27 6.36,12.13 2.08,17.56 -4.27,5.42 -12.13,6.35 -17.55,2.08 -5.43,-4.27 -6.36,-12.13 -2.09,-17.56z"/>
     <path class="fil0" d="M3580.06 694.82c4.27,-5.42 12.13,-6.35 17.56,-2.08 5.42,4.27 6.35,12.13 2.08,17.55 -4.27,5.42 -12.13,6.35 -17.55,2.08 -5.43,-4.27 -6.36,-12.13 -2.09,-17.56z"/>
     <path class="fil0" d="M3502.79 633.96c4.27,-5.42 12.13,-6.35 17.56,-2.08 5.42,4.27 6.35,12.13 2.08,17.55 -4.27,5.42 -12.13,6.35 -17.55,2.08 -5.42,-4.27 -6.35,-12.13 -2.08,-17.56z"/>
     <path class="fil0" d="M3425.51 573.09c4.27,-5.43 12.13,-6.36 17.55,-2.08 5.42,4.27 6.35,12.13 2.08,17.55 -4.27,5.42 -12.13,6.36 -17.56,2.09 -5.42,-4.27 -6.35,-12.13 -2.08,-17.56z"/>
     <path class="fil0" d="M3348.24 512.23c4.27,-5.43 12.13,-6.36 17.55,-2.09 5.43,4.27 6.36,12.13 2.09,17.55 -4.27,5.42 -12.13,6.35 -17.56,2.08 -5.42,-4.27 -6.35,-12.13 -2.08,-17.55z"/>
     <path class="fil0" d="M3270.96 451.37c4.27,-5.42 12.13,-6.35 17.55,-2.08 5.43,4.27 6.36,12.13 2.09,17.55 -4.27,5.43 -12.13,6.36 -17.55,2.09 -5.42,-4.27 -6.35,-12.13 -2.08,-17.56z"/>
     <path class="fil0" d="M3193.69 390.5c4.27,-5.43 12.13,-6.36 17.55,-2.09 5.43,4.27 6.36,12.13 2.09,17.55 -4.27,5.42 -12.13,6.36 -17.56,2.08 -5.42,-4.27 -6.36,-12.13 -2.08,-17.55z"/>
     <path class="fil0" d="M3116.41 329.64c4.27,-5.42 12.13,-6.35 17.55,-2.08 5.42,4.27 6.36,12.13 2.09,17.55 -4.27,5.42 -12.13,6.35 -17.56,2.08 -5.43,-4.27 -6.36,-12.13 -2.08,-17.56z"/>
    </g>
    <g>
     <path class="fil0" d="M4051.59 1526.94c4.27,-5.42 12.13,-6.36 17.55,-2.08 5.43,4.27 6.36,12.13 2.09,17.55 -4.27,5.43 -12.13,6.36 -17.56,2.09 -5.42,-4.27 -6.35,-12.13 -2.08,-17.56z"/>
     <path class="fil0" d="M3974.32 1466.07c4.27,-5.43 12.13,-6.36 17.55,-2.09 5.43,4.27 6.36,12.13 2.09,17.55 -4.27,5.42 -12.13,6.35 -17.56,2.08 -5.42,-4.27 -6.36,-12.13 -2.08,-17.55z"/>
     <path class="fil0" d="M3897.04 1405.21c4.27,-5.42 12.13,-6.35 17.55,-2.08 5.43,4.27 6.36,12.13 2.09,17.55 -4.27,5.43 -12.13,6.36 -17.55,2.09 -5.42,-4.27 -6.36,-12.13 -2.08,-17.56z"/>
     <path class="fil0" d="M3819.77 1344.34c4.27,-5.42 12.13,-6.36 17.55,-2.09 5.42,4.27 6.36,12.13 2.08,17.56 -4.27,5.43 -12.13,6.36 -17.55,2.08 -5.42,-4.27 -6.36,-12.13 -2.08,-17.55z"/>
     <path class="fil0" d="M3742.49 1283.48c4.27,-5.42 12.13,-6.35 17.55,-2.08 5.42,4.27 6.36,12.13 2.08,17.55 -4.27,5.42 -12.13,6.35 -17.55,2.08 -5.43,-4.27 -6.36,-12.13 -2.09,-17.56z"/>
    </g>
    <g>
     <path class="fil0" d="M4048.97 1371.29c4.27,-5.43 12.13,-6.36 17.55,-2.09 5.43,4.27 6.36,12.13 2.09,17.56 -4.27,5.42 -12.13,6.35 -17.55,2.08 -5.42,-4.27 -6.35,-12.13 -2.08,-17.55z"/>
     <path class="fil0" d="M3971.69 1310.43c4.27,-5.42 12.13,-6.35 17.55,-2.08 5.43,4.27 6.36,12.13 2.09,17.55 -4.27,5.43 -12.13,6.36 -17.56,2.09 -5.42,-4.27 -6.35,-12.13 -2.08,-17.55z"/>
     <path class="fil0" d="M3894.42 1249.57c4.27,-5.43 12.13,-6.36 17.55,-2.09 5.43,4.27 6.36,12.13 2.09,17.56 -4.27,5.42 -12.13,6.36 -17.56,2.08 -5.42,-4.27 -6.35,-12.13 -2.08,-17.55z"/>
     <path class="fil0" d="M3817.14 1188.7c4.27,-5.42 12.13,-6.35 17.55,-2.08 5.43,4.27 6.36,12.13 2.08,17.56 -4.27,5.42 -12.13,6.35 -17.55,2.08 -5.42,-4.27 -6.36,-12.13 -2.08,-17.56z"/>
    </g>
    <g>
     <path class="fil0" d="M4046.34 1215.65c4.27,-5.43 12.13,-6.36 17.56,-2.09 5.42,4.27 6.35,12.13 2.08,17.56 -4.27,5.43 -12.13,6.36 -17.56,2.08 -5.42,-4.27 -6.35,-12.13 -2.08,-17.55z"/>
     <path class="fil0" d="M3969.07 1154.79c4.27,-5.43 12.13,-6.36 17.55,-2.09 5.43,4.27 6.36,12.13 2.09,17.56 -4.27,5.42 -12.13,6.35 -17.55,2.08 -5.42,-4.27 -6.35,-12.13 -2.08,-17.55z"/>
     <path class="fil0" d="M3891.79 1093.92c4.27,-5.42 12.13,-6.35 17.55,-2.09 5.43,4.27 6.36,12.13 2.09,17.56 -4.27,5.43 -12.13,6.36 -17.56,2.08 -5.42,-4.27 -6.35,-12.13 -2.08,-17.55z"/>
    </g>
    <g>
     <path class="fil0" d="M4043.72 1060c4.27,-5.42 12.13,-6.35 17.55,-2.08 5.42,4.27 6.35,12.13 2.08,17.56 -4.27,5.42 -12.13,6.35 -17.55,2.08 -5.43,-4.27 -6.36,-12.13 -2.09,-17.56z"/>
     <path class="fil0" d="M3966.44 999.14c4.27,-5.43 12.13,-6.36 17.56,-2.09 5.42,4.27 6.35,12.13 2.08,17.55 -4.27,5.43 -12.13,6.36 -17.56,2.08 -5.42,-4.27 -6.35,-12.13 -2.08,-17.55z"/>
    </g>
   </g>
  </g>
  <g id="_1279031580576">
   <path class="fil1" d="M247.43 1197.04l1149.54 905.4c24.93,19.64 29.22,55.77 9.58,80.71 -19.64,24.94 -55.77,29.23 -80.71,9.59l-649.23 -511.34c-12.8,-10.09 -31.36,-7.88 -41.44,4.92 -10.08,12.8 -7.88,31.36 4.93,41.44l146.82 115.64c26.83,21.13 31.45,60 10.32,86.83 -21.13,26.83 -60,31.45 -86.83,10.31l-708.71 -558.2 0 -171.72 483.72 380.99c14.7,11.58 36.01,9.05 47.58,-5.65 11.58,-14.7 9.05,-36.01 -5.65,-47.59l-436.42 -343.73c-20.61,-16.24 -24.16,-46.11 -7.93,-66.72 16.24,-20.62 46.13,-24.16 66.74,-7.91l97.67 77.02z"/>
  </g>
  <path class="fil1" d="M4093.26 652.91c-1.96,-1.27 -3.88,-2.63 -5.75,-4.1l-821.59 -647.1 827.34 0 0 651.21z"/>
  <g id="_1279031581968">
   <path class="fil1" d="M3095.65 2388.44l-45.18 -35.58c-34.97,-27.55 -40.99,-78.22 -13.45,-113.2 27.54,-34.97 78.22,-40.99 113.19,-13.45l205.97 162.23 -260.54 0zm402.76 0c-2.91,-8.18 -8.08,-15.67 -15.41,-21.44l-1028.26 -809.88c-30.21,-23.79 -35.4,-67.57 -11.61,-97.77 23.79,-30.21 67.57,-35.41 97.77,-11.62l1057.41 832.84c41.19,32.44 100.88,25.35 133.33,-15.84 32.44,-41.19 92.13,-48.28 133.32,-15.84l177.18 139.55 -543.72 0z"/>
  </g>
  <g id="_1278714241136">
   <path class="fil1" d="M984.99 1.7l396.38 312.19c24.48,19.29 59.96,15.07 79.24,-9.41 19.28,-24.49 15.07,-59.96 -9.41,-79.25l-283.81 -223.54 -182.4 0z"/>
  </g>
  <g id="_1278714239744">
   <path class="fil1" d="M3387.6 1511.35l705.66 555.79 0 -143.66 -635.83 -500.79c-25.13,-19.79 -61.67,-14.76 -80.51,11.08 -17.88,24.52 -13.16,58.8 10.68,77.57z"/>
  </g>
  <path class="fil2" d="M166.74 1486.56l183.97 144.9c28.04,22.08 68.66,17.25 90.74,-10.78 22.08,-28.04 17.25,-68.66 -10.78,-90.74l-183.98 -144.9c-28.77,-22.67 -70.61,-16.9 -92.19,12.69l0 0c-20.47,28.08 -15.07,67.32 12.23,88.82z"/>
  <g id="_1278714242576">
   <path class="fil3" d="M2799.87 2388.44l-399.27 -314.48c-30.21,-23.79 -73.98,-18.59 -97.78,11.61 -23.79,30.21 -18.59,73.98 11.62,97.77l260.39 205.09 225.04 0zm-395.52 0l-12.64 -9.96c-35.99,-28.34 -87.45,-23.57 -117.69,9.96l130.33 0zm-375.07 0l-162.65 -128.11c-39.2,-30.87 -96.01,-24.13 -126.88,15.07 -26.71,33.92 -25.24,80.98 0.96,113.04l288.57 0z"/>
  </g>
  <g id="_1278714247904">
   <path class="fil3" d="M3377.01 1223.98l482.71 380.2c24.49,19.29 59.96,15.07 79.25,-9.41 19.28,-24.48 15.07,-59.96 -9.41,-79.24l-482.72 -380.2c-25.13,-19.79 -61.67,-14.76 -80.51,11.09 -17.88,24.52 -13.16,58.79 10.68,77.57z"/>
  </g>
  <g id="_1278714246512">
   <path class="fil3" d="M1.7 433.82l309.08 243.44c24.49,19.29 59.97,15.07 79.25,-9.41 19.28,-24.48 15.07,-59.96 -9.41,-79.24l-378.92 -298.44 0 143.66z"/>
  </g>
  <g id="_1278714250160">
   <path class="fil3" d="M1939.35 729.86l1826.54 1438.61c24.48,19.28 59.96,15.07 79.24,-9.41 19.29,-24.48 15.07,-59.96 -9.42,-79.24l-1826.54 -1438.61c-25.13,-19.79 -61.67,-14.76 -80.51,11.09 -17.87,24.52 -13.16,58.79 10.68,77.57z"/>
  </g>
  <g id="_1278714249632">
   <path class="fil3" d="M1519.15 2388.44c-16.59,-7.71 -35.57,-7.47 -51.72,0l51.72 0z"/>
  </g>
  <g id="_1278714254336">
   <path class="fil3" d="M1346.45 2257.15c26.34,24.05 28.19,64.91 4.13,91.25 -24.06,26.34 -64.91,28.19 -91.25,4.13 -26.34,-24.06 -28.19,-64.92 -4.13,-91.25 24.06,-26.34 64.92,-28.18 91.25,-4.13z"/>
  </g>
  <g id="_1278714252512">
   <path class="fil2" d="M3354.56 2336.65c-23.36,29.66 -66.36,34.77 -96.02,11.4l-636.75 -501.51c-31.22,-24.59 -36.6,-69.84 -12.01,-101.06 24.59,-31.22 69.84,-36.6 101.06,-12.01l419.22 330.18c33.28,26.21 81.5,20.48 107.71,-12.79l0 0c26.21,-33.28 74.43,-39.01 107.71,-12.8l444.86 350.38 -261.17 0 -78.05 -62.77c-29.64,-23.84 -73.03,-18.91 -96.56,10.97z"/>
  </g>
  <path class="fil2" d="M1690.15 2067.42c18.88,-23.97 14.75,-58.71 -9.21,-77.58l-234.6 -184.77c-12.58,-9.91 -14.74,-28.13 -4.83,-40.72 9.9,-12.58 28.13,-14.74 40.71,-4.84l798.52 628.93 178.49 0c-2.11,-16.06 -10.25,-31.35 -23.98,-42.16l-1299.7 -1023.67c-26.09,-20.55 -63.89,-16.06 -84.44,10.03 -20.55,26.09 -16.06,63.89 10.03,84.44l187.75 147.87c13.57,10.69 15.91,30.37 5.22,43.95 -10.69,13.58 -30.37,15.91 -43.95,5.22l-577.95 -455.2c-23.41,-18.44 -57.32,-14.41 -75.76,9 -18.37,23.33 -14.44,57.11 8.8,75.6l1047.1 832.96c23.96,19.06 58.85,15 77.8,-9.05z"/>
  <path class="fil2" d="M179.64 2182.83l261.06 205.61 182.39 0 -373.62 -294.27c-25.13,-19.79 -61.67,-14.76 -80.51,11.09 -17.88,24.52 -13.16,58.79 10.68,77.57z"/>
  <path class="fil2" d="M2703.97 745.89l380.32 299.55c26.66,21 65.3,16.41 86.3,-10.25 21,-26.66 16.41,-65.3 -10.25,-86.3l-380.32 -299.55c-27.37,-21.56 -67.16,-16.08 -87.68,12.07 -19.47,26.71 -14.33,64.03 11.63,84.48z"/>
  <g id="_1278714258416">
   <path class="fil4" d="M2077.16 1729.85l744.3 586.22c24.49,19.29 59.96,15.07 79.24,-9.41l0 0c19.28,-24.48 15.07,-59.96 -9.41,-79.24l-744.3 -586.22c-25.13,-19.79 -61.67,-14.76 -80.51,11.09 -17.88,24.52 -13.16,58.79 10.68,77.57z"/>
  </g>
  <path class="fil5" d="M863.88 421.86c-38.27,48.6 -29.91,119.02 18.69,157.3 33.03,26.01 38.71,73.87 12.7,106.9l-14.91 18.94c-26.02,33.03 -73.87,38.71 -106.9,12.7l-771.75 -607.84 0 -108.15 809.17 0 637.35 501.98c39.9,31.42 46.77,89.24 15.34,129.13 -31.34,39.8 -88.97,46.75 -128.88,15.54l-313.81 -245.42c-48.61,-38.01 -118.81,-29.55 -157,18.93z"/>
  <g id="_1278714261152">
   <path class="fil5" d="M108.69 2388.44l-106.99 -84.27 0 -177.24 282.54 222.53c41.19,32.44 100.88,25.35 133.33,-15.84 32.44,-41.19 92.13,-48.28 133.32,-15.84l89.71 70.66 -531.9 0z"/>
  </g>
  <g id="_1278714265616">
   <path class="fil5" d="M984.66 842.97l776.95 542.21c25.56,17.84 60.73,11.57 78.57,-13.98 17.83,-25.55 11.57,-60.73 -13.98,-78.57l-776.95 -542.21c-26.23,-18.31 -62.42,-11.17 -79.74,15.73l0 0c-16.43,25.51 -9.74,59.45 15.15,76.82z"/>
  </g>
  <g id="_1278714266528">
   <path class="fil5" d="M2869.87 146.11l380.32 299.55c26.66,21 65.3,16.41 86.3,-10.25 21,-26.66 16.41,-65.3 -10.25,-86.3l-380.33 -299.55c-27.37,-21.55 -67.16,-16.08 -87.68,12.07 -19.47,26.71 -14.33,64.03 11.63,84.48z"/>
  </g>
  <path class="fil5" d="M3643.76 1866.34l449.5 354.03 0 131.42 -513.38 -404.35c-21.48,-16.92 -26.05,-47.67 -10.39,-70.09 16.99,-24.34 50.95,-29.38 74.27,-11.01z"/>
  <g id="_1278714268208">
   <g>
    <g>
     <polygon class="fil3" points="1216.94,1001.95 1203.6,992.39 1264.8,1505.81 1278.13,1515.37 "/>
     <polygon class="fil3" points="1300.39,1061.82 1287.06,1052.25 1348.25,1565.68 1361.59,1575.25 "/>
     <polygon class="fil3" points="1383.84,1121.7 1370.51,1112.13 1431.7,1625.55 1445.04,1635.12 "/>
     <polygon class="fil3" points="1467.29,1181.57 1453.96,1172.01 1515.16,1685.43 1528.49,1694.99 "/>
     <polygon class="fil3" points="1550.74,1241.44 1537.41,1231.88 1598.61,1745.3 1611.94,1754.87 "/>
     <polygon class="fil3" points="1634.2,1301.32 1620.86,1291.75 1682.06,1805.17 1695.39,1814.74 "/>
     <polygon class="fil3" points="1717.65,1361.19 1704.32,1351.62 1765.51,1865.05 1778.84,1874.61 "/>
     <polygon class="fil3" points="1801.1,1421.06 1787.77,1411.5 1848.97,1924.92 1862.29,1934.49 "/>
     <polygon class="fil3" points="1884.55,1480.94 1871.22,1471.37 1932.42,1984.79 1945.75,1994.36 "/>
    </g>
    <g>
     <polygon class="fil3" points="549.32,522.96 535.99,513.39 597.19,1026.82 610.52,1036.38 "/>
     <polygon class="fil3" points="632.77,582.83 619.44,573.27 680.64,1086.69 693.97,1096.26 "/>
     <polygon class="fil3" points="716.23,642.71 702.9,633.14 764.09,1146.57 777.42,1156.13 "/>
     <polygon class="fil3" points="799.68,702.58 786.35,693.02 847.54,1206.44 860.88,1216 "/>
     <polygon class="fil3" points="883.13,762.45 869.8,752.89 931,1266.31 944.33,1275.88 "/>
     <polygon class="fil3" points="966.58,822.33 953.25,812.76 1014.45,1326.18 1027.78,1335.75 "/>
     <polygon class="fil3" points="1050.03,882.2 1036.7,872.63 1097.9,1386.06 1111.23,1395.63 "/>
     <polygon class="fil3" points="1133.49,942.08 1120.15,932.51 1181.35,1445.93 1194.68,1455.5 "/>
    </g>
   </g>
  </g>
  <g id="_1278706425040">
   <g>
    <polygon class="fil2" points="1641.08,2121.9 1678,2150.97 1686.82,2217.74 1649.9,2188.67 "/>
    <polygon class="fil2" points="1556.66,2055.4 1593.58,2084.48 1602.4,2151.25 1565.48,2122.17 "/>
    <polygon class="fil2" points="1472.24,1988.91 1509.15,2017.99 1517.98,2084.76 1481.06,2055.68 "/>
    <polygon class="fil2" points="1387.81,1922.42 1424.73,1951.5 1433.55,2018.27 1396.64,1989.19 "/>
    <polygon class="fil2" points="1303.39,1855.93 1340.31,1885 1349.13,1951.77 1312.21,1922.7 "/>
    <polygon class="fil2" points="1218.97,1789.43 1255.89,1818.51 1264.71,1885.28 1227.79,1856.2 "/>
    <polygon class="fil2" points="1134.55,1722.94 1171.46,1752.02 1180.29,1818.79 1143.37,1789.71 "/>
    <polygon class="fil2" points="1050.12,1656.45 1087.04,1685.53 1095.86,1752.3 1058.95,1723.22 "/>
    <polygon class="fil2" points="965.7,1589.95 1002.62,1619.03 1011.44,1685.8 974.52,1656.73 "/>
    <polygon class="fil2" points="881.28,1523.46 918.2,1552.54 927.02,1619.31 890.1,1590.23 "/>
    <polygon class="fil2" points="796.86,1456.97 833.77,1486.05 842.6,1552.82 805.68,1523.74 "/>
    <polygon class="fil2" points="712.43,1390.48 749.35,1419.55 758.17,1486.32 721.26,1457.25 "/>
    <polygon class="fil2" points="628.01,1323.99 664.93,1353.06 673.75,1419.83 636.83,1390.75 "/>
   </g>
  </g>
  <line class="fil6 str0" x1="1557.1" y1="1.7" x2="1942.59" y2= "305.32" />
  <line class="fil6 str0" x1="872.86" y1="1983.63" x2="1386.82" y2= "2388.44" />
  <g id="_1279355934288">
   <g>
    <line class="fil6 str1" x1="1.7" y1="1614.15" x2="984.79" y2= "2388.44" />
   </g>
   <g>
    <line class="fil6 str0" x1="686.32" y1="1836.71" x2="768.12" y2= "1901.14" />
   </g>
  </g>
  <g id="_1279355935440">
   <line class="fil6 str2" x1="2045.66" y1="1265.22" x2="2537.6" y2= "1652.69" />
   <g>
    <line class="fil6 str2" x1="1.7" y1="1335.86" x2="467.26" y2= "1702.54" />
   </g>
  </g>
  <line class="fil6 str3" x1="1.7" y1="582.76" x2="643.98" y2= "1088.63" />
 </g>
</svg>
