<?xml version="1.0" encoding="UTF-8"?>
<!DOCTYPE svg PUBLIC "-//W3C//DTD SVG 1.1//EN" "http://www.w3.org/Graphics/SVG/1.1/DTD/svg11.dtd">
<!-- Creator: CorelDRAW -->
<svg xmlns="http://www.w3.org/2000/svg" xml:space="preserve" width="424.111mm" height="248.357mm" version="1.1" style="shape-rendering:geometricPrecision; text-rendering:geometricPrecision; image-rendering:optimizeQuality; fill-rule:evenodd; clip-rule:evenodd"
viewBox="0 0 5268.53 3085.22"
 xmlns:xlink="http://www.w3.org/1999/xlink"
 xmlns:xodm="http://www.corel.com/coreldraw/odm/2003">
 <defs>
  <style type="text/css">
   <![CDATA[
    .fil4 {fill:#E95050;fill-rule:nonzero}
    .fil3 {fill:#FEDA3F;fill-rule:nonzero}
    .fil1 {fill:#A2D6D8;fill-rule:nonzero}
    .fil2 {fill:#129598;fill-rule:nonzero}
    .fil0 {fill:#F2CC8F;fill-rule:nonzero}
   ]]>
  </style>
 </defs>
 <g id="Layer_x0020_1">
  <metadata id="CorelCorpID_0Corel-Layer"/>
  <path class="fil0" d="M3724.99 796.7c5.49,-6.96 15.58,-8.18 22.56,-2.69 6.97,5.49 8.17,15.6 2.68,22.58 -5.49,6.97 -15.59,8.17 -22.57,2.67 -6.97,-5.49 -8.17,-15.58 -2.67,-22.55z"/>
  <path class="fil0" d="M3625.66 718.46c5.49,-6.97 15.6,-8.17 22.55,-2.68 6.98,5.49 8.18,15.6 2.69,22.57 -5.49,6.96 -15.6,8.18 -22.55,2.69 -6.99,-5.51 -8.18,-15.62 -2.69,-22.58z"/>
  <path class="fil0" d="M3526.31 640.23c5.48,-6.98 15.6,-8.17 22.57,-2.67 6.99,5.47 8.17,15.58 2.68,22.56 -5.48,6.96 -15.59,8.16 -22.57,2.68 -6.95,-5.51 -8.15,-15.6 -2.68,-22.57z"/>
  <path class="fil0" d="M3427 561.99c5.49,-6.97 15.59,-8.17 22.58,-2.68 6.95,5.49 8.15,15.6 2.66,22.57 -5.49,6.96 -15.6,8.18 -22.55,2.67 -6.98,-5.47 -8.18,-15.58 -2.68,-22.56z"/>
  <path class="fil0" d="M3327.65 483.76c5.51,-6.98 15.6,-8.17 22.57,-2.68 6.98,5.51 8.18,15.59 2.69,22.57 -5.51,6.98 -15.6,8.17 -22.58,2.67 -6.97,-5.49 -8.17,-15.58 -2.68,-22.55z"/>
  <path class="fil0" d="M3228.33 405.52c5.49,-6.98 15.58,-8.17 22.55,-2.68 6.97,5.49 8.17,15.6 2.68,22.58 -5.49,6.96 -15.6,8.17 -22.57,2.68 -6.96,-5.51 -8.16,-15.62 -2.67,-22.58z"/>
  <path class="fil0" d="M3128.99 327.29c5.49,-6.97 15.6,-8.17 22.57,-2.68 6.96,5.49 8.16,15.6 2.67,22.57 -5.47,6.96 -15.58,8.16 -22.55,2.67 -6.97,-5.47 -8.17,-15.58 -2.68,-22.55z"/>
  <path class="fil0" d="M3029.67 249.05c5.49,-6.98 15.6,-8.18 22.55,-2.69 6.97,5.49 8.17,15.6 2.68,22.58 -5.49,6.97 -15.6,8.17 -22.55,2.67 -6.97,-5.49 -8.17,-15.58 -2.68,-22.56z"/>
  <path class="fil0" d="M2930.33 170.82c5.51,-6.97 15.6,-8.17 22.57,-2.68 6.96,5.51 8.18,15.6 2.69,22.57 -5.51,6.96 -15.62,8.17 -22.58,2.69 -6.97,-5.51 -8.17,-15.62 -2.68,-22.58z"/>
  <path class="fil0" d="M2831.01 92.58c5.49,-6.98 15.58,-8.18 22.55,-2.69 6.97,5.49 8.17,15.6 2.68,22.58 -5.49,6.96 -15.6,8.16 -22.58,2.68 -6.96,-5.49 -8.15,-15.6 -2.66,-22.57z"/>
  <path class="fil0" d="M2731.67 14.35c1.65,-2.09 3.7,-3.66 5.98,-4.68l13.32 0c1.15,0.52 2.25,1.19 3.28,2 6.96,5.49 8.16,15.6 2.67,22.57 -5.47,6.98 -15.58,8.18 -22.55,2.67 -6.97,-5.49 -8.17,-15.58 -2.68,-22.55z"/>
  <path class="fil0" d="M3820.93 674.86c5.52,-6.98 15.61,-8.18 22.58,-2.67 6.97,5.49 8.17,15.58 2.68,22.56 -5.51,6.97 -15.6,8.17 -22.57,2.68 -6.96,-5.51 -8.17,-15.6 -2.69,-22.57z"/>
  <path class="fil0" d="M3721.61 596.63c5.49,-6.97 15.6,-8.17 22.56,-2.67 6.98,5.49 8.18,15.58 2.69,22.56 -5.49,6.96 -15.6,8.17 -22.56,2.69 -6.98,-5.49 -8.18,-15.6 -2.69,-22.58z"/>
  <path class="fil0" d="M3622.29 518.39c5.47,-6.96 15.58,-8.16 22.55,-2.69 6.95,5.49 8.17,15.6 2.69,22.58 -5.49,6.97 -15.6,8.17 -22.58,2.67 -6.98,-5.47 -8.17,-15.58 -2.67,-22.56z"/>
  <path class="fil0" d="M3522.95 440.15c5.49,-6.97 15.6,-8.17 22.55,-2.68 6.99,5.51 8.18,15.6 2.69,22.57 -5.49,6.98 -15.6,8.18 -22.55,2.69 -6.97,-5.51 -8.18,-15.6 -2.69,-22.58z"/>
  <path class="fil0" d="M3423.61 361.92c5.5,-6.98 15.6,-8.17 22.58,-2.67 6.97,5.49 8.16,15.58 2.66,22.56 -5.49,6.97 -15.58,8.17 -22.56,2.68 -6.95,-5.49 -8.17,-15.6 -2.68,-22.57z"/>
  <path class="fil0" d="M3324.29 283.68c5.49,-6.96 15.6,-8.15 22.56,-2.66 6.97,5.47 8.17,15.58 2.68,22.55 -5.48,6.98 -15.6,8.18 -22.57,2.69 -6.96,-5.49 -8.17,-15.6 -2.67,-22.58z"/>
  <path class="fil0" d="M3224.95 205.45c5.49,-6.96 15.6,-8.16 22.56,-2.68 6.98,5.51 8.18,15.59 2.69,22.57 -5.49,6.98 -15.58,8.17 -22.55,2.68 -6.98,-5.51 -8.18,-15.6 -2.69,-22.57z"/>
  <path class="fil0" d="M3125.63 127.22c5.49,-6.98 15.58,-8.18 22.56,-2.67 6.98,5.49 8.17,15.58 2.68,22.55 -5.49,6.97 -15.6,8.17 -22.56,2.68 -6.97,-5.49 -8.17,-15.6 -2.68,-22.57z"/>
  <path class="fil0" d="M3026.29 48.98c5.49,-6.96 15.6,-8.16 22.58,-2.67 6.97,5.49 8.17,15.58 2.67,22.55 -5.49,6.98 -15.58,8.17 -22.55,2.68 -6.98,-5.48 -8.18,-15.59 -2.69,-22.57z"/>
  <path class="fil0" d="M3916.89 553.02c5.49,-6.96 15.6,-8.15 22.58,-2.66 6.98,5.49 8.17,15.58 2.67,22.56 -5.47,6.97 -15.58,8.17 -22.55,2.68 -6.95,-5.49 -8.16,-15.6 -2.69,-22.58z"/>
  <path class="fil0" d="M3817.57 474.81c5.49,-6.98 15.59,-8.18 22.57,-2.69 6.96,5.49 8.16,15.6 2.67,22.56 -5.49,6.98 -15.6,8.17 -22.56,2.68 -6.97,-5.48 -8.17,-15.59 -2.68,-22.55z"/>
  <path class="fil0" d="M3718.23 396.56c5.52,-6.96 15.6,-8.16 22.58,-2.67 6.96,5.49 8.18,15.6 2.69,22.55 -5.51,6.97 -15.6,8.17 -22.58,2.68 -6.97,-5.49 -8.17,-15.6 -2.69,-22.57z"/>
  <path class="fil0" d="M3618.91 318.32c5.49,-6.96 15.58,-8.16 22.56,-2.67 6.97,5.49 8.17,15.58 2.68,22.55 -5.49,6.98 -15.6,8.17 -22.57,2.69 -6.96,-5.49 -8.16,-15.6 -2.67,-22.58z"/>
  <path class="fil0" d="M3519.57 240.1c5.49,-6.97 15.6,-8.17 22.57,-2.68 6.96,5.49 8.16,15.6 2.67,22.56 -5.47,6.97 -15.58,8.17 -22.55,2.68 -6.98,-5.49 -8.18,-15.6 -2.69,-22.56z"/>
  <path class="fil0" d="M3420.22 161.87c5.51,-6.98 15.62,-8.17 22.58,-2.69 6.97,5.49 8.17,15.6 2.68,22.58 -5.49,6.96 -15.6,8.16 -22.57,2.67 -6.95,-5.49 -8.15,-15.6 -2.69,-22.55z"/>
  <path class="fil0" d="M3320.91 83.61c5.51,-6.96 15.6,-8.16 22.58,-2.67 6.95,5.49 8.17,15.58 2.66,22.55 -5.49,6.97 -15.6,8.17 -22.55,2.68 -6.97,-5.49 -8.17,-15.6 -2.68,-22.57z"/>
  <path class="fil0" d="M3249.24 9.66c1.92,5.08 1.2,11.02 -2.41,15.6 -5.49,6.98 -15.6,8.18 -22.58,2.69 -5.63,-4.44 -7.48,-11.92 -5.07,-18.29l30.06 0z"/>
  <path class="fil0" d="M4012.87 431.21c5.48,-6.98 15.59,-8.17 22.56,-2.68 6.95,5.48 8.15,15.59 2.68,22.57 -5.48,6.96 -15.59,8.16 -22.57,2.67 -6.99,-5.49 -8.17,-15.58 -2.67,-22.55z"/>
  <path class="fil0" d="M3913.53 352.97c5.49,-6.97 15.6,-8.17 22.55,-2.68 6.99,5.49 8.18,15.6 2.69,22.58 -5.49,6.96 -15.6,8.15 -22.55,2.66 -6.98,-5.49 -8.18,-15.6 -2.69,-22.55z"/>
  <path class="fil0" d="M3814.19 274.74c5.49,-6.98 15.59,-8.17 22.57,-2.68 6.98,5.49 8.18,15.6 2.67,22.56 -5.49,6.97 -15.58,8.17 -22.56,2.68 -6.97,-5.49 -8.17,-15.6 -2.68,-22.55z"/>
  <path class="fil0" d="M3714.87 196.5c5.49,-6.98 15.58,-8.18 22.56,-2.69 6.97,5.49 8.17,15.6 2.68,22.58 -5.49,6.96 -15.6,8.15 -22.57,2.66 -6.96,-5.48 -8.17,-15.58 -2.67,-22.55z"/>
  <path class="fil0" d="M3615.53 118.27c5.49,-6.97 15.6,-8.17 22.56,-2.68 6.98,5.49 8.18,15.6 2.71,22.57 -5.51,6.96 -15.6,8.17 -22.58,2.67 -6.97,-5.49 -8.17,-15.6 -2.68,-22.56z"/>
  <path class="fil0" d="M3516.2 40.03c5.49,-6.98 15.59,-8.18 22.56,-2.69 6.97,5.49 8.17,15.6 2.69,22.58 -5.49,6.96 -15.6,8.15 -22.56,2.67 -6.98,-5.49 -8.18,-15.6 -2.69,-22.55z"/>
  <path class="fil0" d="M4817.62 1657.28c5.48,-6.98 15.6,-8.18 22.57,-2.68 6.97,5.48 8.17,15.59 2.67,22.57 -5.47,6.96 -15.59,8.16 -22.56,2.68 -6.96,-5.49 -8.17,-15.59 -2.68,-22.57z"/>
  <path class="fil0" d="M4718.3 1579.05c5.49,-6.97 15.6,-8.17 22.57,-2.68 6.96,5.49 8.16,15.59 2.67,22.57 -5.49,6.97 -15.6,8.17 -22.56,2.68 -6.97,-5.49 -8.18,-15.59 -2.69,-22.57z"/>
  <path class="fil0" d="M4618.96 1500.82c5.51,-6.97 15.6,-8.18 22.57,-2.69 6.96,5.49 8.18,15.6 2.69,22.58 -5.51,6.96 -15.6,8.16 -22.57,2.68 -6.98,-5.49 -8.18,-15.61 -2.69,-22.57z"/>
  <path class="fil0" d="M4519.64 1422.57c5.48,-6.96 15.57,-8.16 22.55,-2.68 6.97,5.49 8.17,15.6 2.68,22.57 -5.49,6.97 -15.59,8.17 -22.57,2.68 -6.95,-5.48 -8.15,-15.59 -2.66,-22.57z"/>
  <path class="fil0" d="M4420.3 1344.35c5.49,-6.98 15.6,-8.18 22.58,-2.68 6.95,5.48 8.15,15.59 2.66,22.55 -5.46,6.97 -15.58,8.17 -22.55,2.68 -6.99,-5.48 -8.18,-15.59 -2.69,-22.56z"/>
  <path class="fil0" d="M4320.98 1266.11c5.49,-6.97 15.6,-8.17 22.55,-2.68 6.98,5.49 8.17,15.59 2.69,22.57 -5.49,6.97 -15.6,8.17 -22.56,2.68 -6.97,-5.5 -8.17,-15.59 -2.68,-22.57z"/>
  <path class="fil0" d="M4221.63 1187.88c5.49,-6.98 15.6,-8.18 22.58,-2.7 6.97,5.5 8.17,15.6 2.66,22.57 -5.48,6.97 -15.58,8.17 -22.55,2.68 -6.98,-5.49 -8.18,-15.6 -2.69,-22.56z"/>
  <path class="fil0" d="M4122.32 1109.64c5.49,-6.97 15.58,-8.17 22.55,-2.68 6.98,5.49 8.18,15.6 2.69,22.58 -5.49,6.96 -15.6,8.15 -22.58,2.66 -6.96,-5.48 -8.17,-15.58 -2.66,-22.55z"/>
  <path class="fil0" d="M4022.97 1031.4c5.49,-6.97 15.6,-8.17 22.58,-2.68 6.96,5.49 8.16,15.6 2.67,22.57 -5.49,6.98 -15.59,8.17 -22.56,2.67 -6.97,-5.49 -8.17,-15.57 -2.69,-22.55z"/>
  <path class="fil0" d="M3923.64 953.17c5.51,-6.98 15.61,-8.18 22.57,-2.69 6.98,5.49 8.18,15.6 2.69,22.58 -5.49,6.96 -15.6,8.15 -22.56,2.68 -6.98,-5.51 -8.18,-15.61 -2.71,-22.57z"/>
  <path class="fil0" d="M3824.32 874.93c5.49,-6.97 15.6,-8.17 22.57,-2.68 6.98,5.49 8.17,15.6 2.67,22.57 -5.49,6.96 -15.58,8.16 -22.55,2.67 -6.98,-5.47 -8.18,-15.58 -2.69,-22.56z"/>
  <path class="fil0" d="M3724.99 796.7c5.49,-6.96 15.58,-8.18 22.56,-2.69 6.97,5.49 8.17,15.6 2.68,22.58 -5.49,6.97 -15.59,8.17 -22.57,2.67 -6.97,-5.49 -8.17,-15.58 -2.67,-22.55z"/>
  <path class="fil0" d="M4913.6 1535.45c5.47,-6.97 15.58,-8.17 22.55,-2.68 6.95,5.49 8.16,15.59 2.68,22.57 -5.48,6.97 -15.59,8.17 -22.57,2.68 -6.97,-5.49 -8.17,-15.59 -2.66,-22.57z"/>
  <path class="fil0" d="M4814.26 1457.22c5.49,-6.97 15.6,-8.17 22.55,-2.68 6.97,5.49 8.17,15.59 2.68,22.57 -5.48,6.98 -15.6,8.17 -22.55,2.68 -6.99,-5.5 -8.17,-15.59 -2.69,-22.57z"/>
  <path class="fil0" d="M4714.92 1378.98c5.49,-6.97 15.6,-8.17 22.57,-2.68 6.99,5.49 8.18,15.59 2.67,22.57 -5.49,6.97 -15.58,8.16 -22.56,2.68 -6.97,-5.49 -8.17,-15.6 -2.68,-22.57z"/>
  <path class="fil0" d="M4615.59 1300.75c5.5,-6.97 15.58,-8.18 22.56,-2.68 6.97,5.49 8.17,15.6 2.68,22.56 -5.48,6.97 -15.6,8.17 -22.57,2.69 -6.96,-5.5 -8.16,-15.6 -2.67,-22.57z"/>
  <path class="fil0" d="M4516.26 1222.51c5.49,-6.97 15.6,-8.17 22.56,-2.68 6.97,5.49 8.17,15.59 2.7,22.57 -5.51,6.97 -15.61,8.17 -22.57,2.68 -6.98,-5.5 -8.18,-15.59 -2.69,-22.57z"/>
  <path class="fil0" d="M4416.94 1144.27c5.49,-6.97 15.58,-8.17 22.55,-2.67 6.98,5.48 8.18,15.59 2.69,22.55 -5.49,6.97 -15.6,8.18 -22.57,2.69 -6.96,-5.5 -8.16,-15.61 -2.67,-22.58z"/>
  <path class="fil0" d="M4317.59 1066.04c5.49,-6.96 15.6,-8.16 22.58,-2.69 6.96,5.49 8.15,15.6 2.66,22.58 -5.49,6.97 -15.58,8.17 -22.55,2.68 -6.97,-5.49 -8.17,-15.6 -2.69,-22.57z"/>
  <path class="fil0" d="M4218.28 987.8c5.49,-6.96 15.58,-8.17 22.56,-2.68 6.97,5.51 8.16,15.6 2.68,22.57 -5.51,6.98 -15.6,8.18 -22.57,2.69 -6.96,-5.51 -8.18,-15.6 -2.67,-22.58z"/>
  <path class="fil0" d="M4118.94 909.57c5.48,-6.98 15.6,-8.17 22.57,-2.67 6.95,5.49 8.15,15.58 2.69,22.56 -5.51,6.98 -15.62,8.17 -22.58,2.68 -6.97,-5.49 -8.17,-15.6 -2.68,-22.57z"/>
  <path class="fil0" d="M4019.61 831.33c5.49,-6.95 15.58,-8.15 22.55,-2.66 6.97,5.47 8.17,15.58 2.68,22.55 -5.49,6.97 -15.6,8.17 -22.57,2.68 -6.96,-5.49 -8.16,-15.6 -2.67,-22.58z"/>
  <path class="fil0" d="M3920.27 753.1c5.48,-6.96 15.6,-8.17 22.57,-2.68 6.96,5.51 8.16,15.6 2.67,22.57 -5.49,6.98 -15.59,8.17 -22.56,2.68 -6.97,-5.48 -8.17,-15.59 -2.68,-22.57z"/>
  <path class="fil0" d="M3820.93 674.86c5.52,-6.98 15.61,-8.18 22.58,-2.67 6.97,5.49 8.17,15.58 2.68,22.56 -5.51,6.97 -15.6,8.17 -22.57,2.68 -6.96,-5.51 -8.17,-15.6 -2.69,-22.57z"/>
  <path class="fil0" d="M5009.54 1413.62c5.51,-6.97 15.6,-8.16 22.57,-2.68 6.97,5.49 8.17,15.59 2.69,22.57 -5.51,6.98 -15.6,8.17 -22.58,2.68 -6.97,-5.49 -8.17,-15.59 -2.68,-22.57z"/>
  <path class="fil0" d="M4910.21 1335.39c5.49,-6.97 15.59,-8.17 22.56,-2.68 6.97,5.49 8.17,15.59 2.69,22.57 -5.5,6.97 -15.6,8.17 -22.58,2.68 -6.95,-5.49 -8.15,-15.59 -2.67,-22.56z"/>
  <path class="fil0" d="M4810.88 1257.16c5.49,-6.98 15.6,-8.17 22.58,-2.68 6.95,5.48 8.15,15.59 2.66,22.56 -5.49,6.96 -15.58,8.16 -22.55,2.68 -6.99,-5.5 -8.18,-15.6 -2.69,-22.57z"/>
  <path class="fil0" d="M4711.54 1178.91c5.51,-6.96 15.62,-8.17 22.57,-2.68 6.99,5.5 8.17,15.6 2.68,22.57 -5.48,6.98 -15.59,8.17 -22.55,2.68 -6.97,-5.5 -8.17,-15.59 -2.71,-22.57z"/>
  <path class="fil0" d="M4612.21 1100.68c5.5,-6.96 15.6,-8.16 22.58,-2.67 6.95,5.49 8.17,15.58 2.66,22.55 -5.49,6.97 -15.58,8.17 -22.55,2.68 -6.98,-5.49 -8.18,-15.6 -2.69,-22.57z"/>
  <path class="fil0" d="M4512.9 1022.46c5.49,-6.98 15.58,-8.18 22.55,-2.69 6.98,5.49 8.18,15.6 2.69,22.55 -5.49,6.98 -15.6,8.18 -22.58,2.69 -6.97,-5.49 -8.17,-15.6 -2.66,-22.56z"/>
  <path class="fil0" d="M4413.55 944.2c5.49,-6.96 15.6,-8.18 22.56,-2.67 6.97,5.49 8.17,15.6 2.68,22.56 -5.48,6.97 -15.58,8.17 -22.55,2.68 -6.97,-5.49 -8.18,-15.6 -2.69,-22.57z"/>
  <path class="fil0" d="M4314.21 865.97c5.51,-6.96 15.6,-8.15 22.57,-2.67 6.98,5.49 8.18,15.58 2.69,22.56 -5.49,6.98 -15.6,8.18 -22.56,2.69 -6.97,-5.49 -8.17,-15.6 -2.7,-22.58z"/>
  <path class="fil0" d="M4214.9 787.75c5.49,-6.97 15.6,-8.17 22.57,-2.68 6.96,5.49 8.17,15.58 2.66,22.55 -5.48,6.97 -15.6,8.17 -22.55,2.68 -6.97,-5.49 -8.17,-15.6 -2.68,-22.55z"/>
  <path class="fil0" d="M4115.57 709.52c5.49,-6.98 15.59,-8.17 22.56,-2.68 6.97,5.48 8.17,15.59 2.68,22.55 -5.49,6.98 -15.6,8.18 -22.58,2.69 -6.98,-5.49 -8.17,-15.6 -2.67,-22.56z"/>
  <path class="fil0" d="M4016.23 631.26c5.49,-6.98 15.6,-8.17 22.55,-2.67 6.97,5.49 8.17,15.58 2.69,22.56 -5.49,6.98 -15.6,8.17 -22.55,2.68 -6.98,-5.49 -8.17,-15.6 -2.68,-22.57z"/>
  <path class="fil0" d="M3916.89 553.02c5.49,-6.96 15.6,-8.15 22.58,-2.66 6.98,5.49 8.17,15.58 2.67,22.56 -5.47,6.97 -15.58,8.17 -22.55,2.68 -6.95,-5.49 -8.16,-15.6 -2.69,-22.58z"/>
  <path class="fil0" d="M5105.49 1291.79c5.48,-6.97 15.6,-8.17 22.57,-2.68 6.99,5.49 8.17,15.59 2.67,22.56 -5.49,6.98 -15.58,8.18 -22.56,2.68 -6.97,-5.49 -8.17,-15.59 -2.68,-22.57z"/>
  <path class="fil0" d="M5006.18 1213.56c5.49,-6.98 15.59,-8.18 22.55,-2.68 6.98,5.48 8.17,15.59 2.68,22.57 -5.49,6.96 -15.6,8.17 -22.57,2.68 -6.96,-5.5 -8.17,-15.61 -2.66,-22.57z"/>
  <path class="fil0" d="M4906.83 1135.3c5.49,-6.96 15.6,-8.15 22.56,-2.66 6.98,5.48 8.18,15.59 2.68,22.55 -5.49,6.98 -15.59,8.17 -22.55,2.68 -6.98,-5.48 -8.18,-15.59 -2.69,-22.57z"/>
  <path class="fil0" d="M4807.51 1057.09c5.47,-6.97 15.58,-8.17 22.55,-2.68 6.98,5.49 8.17,15.6 2.69,22.55 -5.49,6.98 -15.6,8.17 -22.58,2.68 -6.96,-5.48 -8.16,-15.6 -2.67,-22.55z"/>
  <path class="fil0" d="M4708.17 978.86c5.49,-6.98 15.6,-8.17 22.58,-2.68 6.96,5.49 8.15,15.6 2.66,22.57 -5.49,6.96 -15.58,8.16 -22.55,2.67 -6.98,-5.49 -8.18,-15.58 -2.69,-22.56z"/>
  <path class="fil0" d="M4608.83 900.6c5.51,-6.96 15.62,-8.16 22.58,-2.67 6.97,5.49 8.16,15.6 2.67,22.56 -5.5,6.98 -15.59,8.17 -22.57,2.68 -6.95,-5.48 -8.17,-15.59 -2.68,-22.57z"/>
  <path class="fil0" d="M4509.51 822.38c5.49,-6.97 15.6,-8.17 22.56,-2.68 6.97,5.49 8.17,15.6 2.68,22.56 -5.48,6.97 -15.6,8.17 -22.56,2.68 -6.97,-5.49 -8.17,-15.6 -2.68,-22.56z"/>
  <path class="fil0" d="M4410.19 744.15c5.47,-6.98 15.58,-8.18 22.55,-2.69 6.98,5.49 8.18,15.6 2.69,22.56 -5.49,6.98 -15.6,8.18 -22.57,2.69 -6.96,-5.49 -8.16,-15.6 -2.67,-22.55z"/>
  <path class="fil0" d="M4310.85 665.91c5.49,-6.97 15.6,-8.17 22.58,-2.68 6.96,5.49 8.16,15.6 2.67,22.57 -5.49,6.96 -15.59,8.16 -22.56,2.67 -6.97,-5.49 -8.18,-15.6 -2.69,-22.55z"/>
  <path class="fil0" d="M4211.51 587.66c5.51,-6.96 15.6,-8.15 22.58,-2.67 6.98,5.49 8.17,15.6 2.68,22.55 -5.51,6.98 -15.6,8.18 -22.57,2.69 -6.96,-5.49 -8.18,-15.6 -2.69,-22.58z"/>
  <path class="fil0" d="M4112.19 509.44c5.49,-6.97 15.6,-8.17 22.56,-2.68 6.98,5.49 8.18,15.6 2.69,22.56 -5.49,6.97 -15.6,8.17 -22.58,2.68 -6.95,-5.49 -8.15,-15.6 -2.66,-22.56z"/>
  <path class="fil0" d="M4012.87 431.21c5.48,-6.98 15.59,-8.17 22.56,-2.68 6.95,5.48 8.15,15.59 2.68,22.57 -5.48,6.96 -15.59,8.16 -22.57,2.67 -6.99,-5.49 -8.17,-15.58 -2.67,-22.55z"/>
  <path class="fil0" d="M5214.96 1970.22c5.49,-6.96 15.58,-8.17 22.56,-2.68 6.97,5.5 8.17,15.6 2.66,22.57 -5.46,6.97 -15.58,8.17 -22.55,2.68 -6.96,-5.48 -8.16,-15.59 -2.67,-22.57z"/>
  <path class="fil0" d="M5115.62 1891.99c5.49,-6.98 15.6,-8.18 22.57,-2.68 6.96,5.49 8.18,15.59 2.67,22.56 -5.49,6.97 -15.6,8.18 -22.55,2.69 -6.98,-5.5 -8.18,-15.6 -2.69,-22.57z"/>
  <path class="fil0" d="M5016.3 1813.76c5.48,-6.97 15.58,-8.17 22.56,-2.68 6.97,5.49 8.17,15.59 2.68,22.57 -5.48,6.96 -15.6,8.17 -22.57,2.68 -6.97,-5.49 -8.18,-15.6 -2.66,-22.57z"/>
  <path class="fil0" d="M4916.96 1735.51c5.49,-6.96 15.59,-8.16 22.56,-2.68 6.97,5.49 8.17,15.6 2.68,22.57 -5.49,6.97 -15.6,8.17 -22.56,2.68 -6.97,-5.48 -8.16,-15.59 -2.68,-22.57z"/>
  <path class="fil0" d="M4817.62 1657.28c5.48,-6.98 15.6,-8.18 22.57,-2.68 6.97,5.48 8.17,15.59 2.67,22.57 -5.47,6.96 -15.59,8.16 -22.56,2.68 -6.96,-5.49 -8.17,-15.59 -2.68,-22.57z"/>
  <path class="fil0" d="M5211.58 1770.16c5.49,-6.97 15.6,-8.17 22.57,-2.68 6.96,5.5 8.16,15.59 2.67,22.57 -5.49,6.97 -15.58,8.17 -22.56,2.68 -6.97,-5.49 -8.17,-15.59 -2.68,-22.57z"/>
  <path class="fil0" d="M5112.24 1691.92c5.5,-6.97 15.6,-8.17 22.57,-2.68 6.97,5.49 8.17,15.59 2.69,22.56 -5.51,6.97 -15.6,8.17 -22.58,2.68 -6.98,-5.49 -8.17,-15.6 -2.68,-22.56z"/>
  <path class="fil0" d="M5012.92 1613.69c5.49,-6.97 15.6,-8.16 22.55,-2.68 6.99,5.49 8.18,15.6 2.69,22.57 -5.49,6.97 -15.6,8.17 -22.57,2.69 -6.96,-5.49 -8.16,-15.6 -2.67,-22.57z"/>
  <path class="fil0" d="M4913.6 1535.45c5.47,-6.97 15.58,-8.17 22.55,-2.68 6.95,5.49 8.16,15.59 2.68,22.57 -5.48,6.97 -15.59,8.17 -22.57,2.68 -6.97,-5.49 -8.17,-15.59 -2.66,-22.57z"/>
  <path class="fil0" d="M5208.19 1570.09c5.49,-6.97 15.6,-8.17 22.58,-2.68 6.97,5.48 8.17,15.59 2.67,22.56 -5.47,6.97 -15.59,8.16 -22.56,2.68 -6.96,-5.5 -8.15,-15.6 -2.69,-22.57z"/>
  <path class="fil0" d="M5108.87 1491.86c5.49,-6.97 15.6,-8.17 22.57,-2.68 6.96,5.49 8.16,15.6 2.67,22.57 -5.49,6.97 -15.6,8.17 -22.55,2.68 -6.98,-5.48 -8.18,-15.59 -2.69,-22.56z"/>
  <path class="fil0" d="M5009.54 1413.62c5.51,-6.97 15.6,-8.16 22.57,-2.68 6.97,5.49 8.17,15.59 2.69,22.57 -5.51,6.98 -15.6,8.17 -22.58,2.68 -6.97,-5.49 -8.17,-15.59 -2.68,-22.57z"/>
  <path class="fil0" d="M5204.84 1370.02c5.49,-6.97 15.6,-8.17 22.55,-2.68 6.98,5.49 8.18,15.6 2.69,22.57 -5.49,6.97 -15.6,8.17 -22.55,2.68 -6.99,-5.49 -8.18,-15.59 -2.69,-22.57z"/>
  <path class="fil0" d="M5105.49 1291.79c5.48,-6.97 15.6,-8.17 22.57,-2.68 6.99,5.49 8.17,15.59 2.67,22.56 -5.49,6.98 -15.58,8.18 -22.56,2.68 -6.97,-5.49 -8.17,-15.59 -2.68,-22.57z"/>
  <path class="fil1" d="M325.03 1546.18l1477.64 1163.81c32.04,25.25 37.57,71.69 12.33,103.74 -25.24,32.05 -71.7,37.57 -103.75,12.33l-834.53 -657.29c-16.45,-12.96 -40.3,-10.12 -53.27,6.33 -12.95,16.46 -10.12,40.31 6.34,53.27l188.73 148.64c34.48,27.16 40.41,77.13 13.26,111.6 -27.15,34.5 -77.13,40.43 -111.61,13.27l-910.5 -717.13 0 -220.73 621.29 489.34c18.9,14.88 46.29,11.63 61.17,-7.28 14.88,-18.88 11.61,-46.28 -7.26,-61.16l-560.99 -441.83c-26.49,-20.87 -31.06,-59.27 -10.18,-85.77 20.87,-26.5 59.29,-31.06 85.79,-10.16l125.55 99z"/>
  <path class="fil1" d="M5268.53 846.75c-2.52,-1.63 -4.99,-3.39 -7.4,-5.29l-1056.1 -831.8 1063.49 0 0 837.09z"/>
  <path class="fil1" d="M1273.09 9.66l509.51 401.31c31.46,24.8 77.08,19.37 101.87,-12.1 24.77,-31.48 19.37,-77.08 -12.1,-101.87l-364.83 -287.34 -234.45 0z"/>
  <path class="fil1" d="M4361.45 1950.18l907.08 714.44 0 -184.65 -817.33 -643.74c-32.3,-25.44 -79.25,-18.97 -103.49,14.25 -22.98,31.52 -16.91,75.57 13.74,99.7z"/>
  <path class="fil2" d="M3605.99 3077.63l-513.24 -404.25c-38.84,-30.58 -95.11,-23.89 -125.68,14.93 -30.58,38.83 -23.91,95.1 14.92,125.68l334.74 263.64 289.26 0zm-508.42 0l-16.26 -12.81c-46.26,-36.43 -112.43,-30.29 -151.29,12.81l167.55 0zm-482.1 0l-209.1 -164.69c-50.39,-39.68 -123.42,-31.01 -163.1,19.38 -34.34,43.61 -32.45,104.11 1.24,145.31l370.96 0z"/>
  <path class="fil2" d="M4347.84 1580.8l620.49 488.71c31.46,24.79 77.07,19.36 101.85,-12.1l0 0c24.8,-31.47 19.38,-77.08 -12.1,-101.87l-620.49 -488.7c-32.29,-25.44 -79.26,-18.98 -103.49,14.24l0 0c-22.98,31.52 -16.91,75.57 13.74,99.71z"/>
  <path class="fil2" d="M9.66 565.51l396.81 312.54c31.47,24.78 77.08,19.37 101.87,-12.12 24.78,-31.46 19.37,-77.05 -12.12,-101.85l-486.56 -383.22 0 184.66z"/>
  <path class="fil2" d="M1959.74 3077.63c-21.33,-9.93 -45.76,-9.63 -66.54,0l66.54 0z"/>
  <path class="fil2" d="M1737.72 2908.85c33.86,30.92 36.24,83.44 5.31,117.3 -30.92,33.85 -83.43,36.23 -117.29,5.3 -33.86,-30.92 -36.24,-83.44 -5.31,-117.31 30.93,-33.86 83.45,-36.22 117.29,-5.3z"/>
  <path class="fil3" d="M4318.97 3011.04c-30.04,38.14 -85.29,44.69 -123.43,14.67l-818.48 -644.66c-40.14,-31.61 -47.04,-89.78 -15.43,-129.91 31.62,-40.13 89.77,-47.04 129.89,-15.43l538.89 424.43c42.77,33.69 104.75,26.33 138.44,-16.45 33.7,-42.78 95.69,-50.13 138.46,-16.44l571.84 450.39 -335.73 0 -100.34 -80.7c-38.09,-30.63 -93.87,-24.3 -124.11,14.11z"/>
  <path class="fil3" d="M237.88 2813.32l335.58 264.32 234.46 0 -480.29 -378.27c-32.28,-25.44 -79.26,-18.97 -103.48,14.25 -22.98,31.52 -16.93,75.57 13.72,99.71z"/>
  <path class="fil4" d="M1117.41 549.76c-49.19,62.45 -38.44,152.99 24.02,202.18 42.46,33.44 49.77,94.98 16.33,137.42l-19.18 24.33c-33.44,42.46 -94.95,49.77 -137.41,16.33l-991.52 -780.93 0 -139.42 1039.62 0 819.25 645.26c51.3,40.39 60.13,114.72 19.73,166 -40.29,51.16 -114.37,60.09 -165.67,19.99l-403.37 -315.47c-62.48,-48.88 -152.72,-38 -201.81,24.33z"/>
  <path class="fil4" d="M3695.95 195.28l488.88 385.05c34.27,27 83.94,21.09 110.93,-13.18l0 0c26.99,-34.28 21.11,-83.94 -13.18,-110.93l-488.87 -385.05c-35.17,-27.69 -86.34,-20.66 -112.69,15.52l0 0c-25.05,34.32 -18.45,82.32 14.93,108.6z"/>
  <path class="fil4" d="M4690.72 2406.5l577.81 455.09 0 168.94 -659.93 -519.77c-27.6,-21.75 -33.47,-61.27 -13.35,-90.1 21.84,-31.28 65.5,-37.75 95.47,-14.16z"/>
  <polygon class="fil3" points="2116.46,2735 2163.9,2772.37 2175.25,2858.2 2127.78,2820.82 "/>
  <polygon class="fil3" points="2007.93,2649.52 2055.38,2686.9 2066.73,2772.73 2019.28,2735.35 "/>
  <polygon class="fil3" points="1899.42,2564.06 1946.86,2601.43 1958.21,2687.26 1910.74,2649.88 "/>
  <polygon class="fil3" points="1790.89,2478.59 1838.34,2515.97 1849.69,2601.79 1802.24,2564.41 "/>
  <polygon class="fil3" points="1682.37,2393.11 1729.84,2430.49 1741.16,2516.32 1693.72,2478.94 "/>
  <polygon class="fil3" points="1573.85,2307.65 1621.32,2345.01 1632.65,2430.85 1585.2,2393.47 "/>
  <polygon class="fil3" points="1465.35,2222.18 1512.8,2259.55 1524.15,2345.38 1476.68,2308 "/>
  <polygon class="fil3" points="1356.81,2136.7 1404.28,2174.08 1415.62,2259.9 1368.16,2222.53 "/>
  <polygon class="fil3" points="1248.31,2051.23 1295.76,2088.61 1307.08,2174.44 1259.64,2137.06 "/>
  <polygon class="fil3" points="1139.79,1965.76 1187.24,2003.14 1198.58,2088.97 1151.14,2051.59 "/>
  <polygon class="fil3" points="1031.27,1880.29 1078.72,1917.67 1090.06,2003.5 1042.6,1966.11 "/>
  <polygon class="fil3" points="922.75,1794.82 970.2,1832.2 981.54,1918.02 934.1,1880.64 "/>
  <polygon class="fil3" points="814.23,1709.35 861.7,1746.73 873.02,1832.55 825.57,1795.18 "/>
  <g>
   <path class="fil2" d="M2002.51 17.25c-4.19,-3.3 -4.91,-9.38 -1.61,-13.57 3.3,-4.19 9.38,-4.91 13.57,-1.61l-11.96 15.18zm495.51 390.28l-495.51 -390.28 11.96 -15.18 495.51 390.28 -11.96 15.18zm11.96 -15.18c4.19,3.3 4.91,9.38 1.61,13.57 -3.3,4.19 -9.38,4.91 -13.57,1.61l11.96 -15.18z"/>
  </g>
  <g>
   <polygon class="fil2" points="1266.89,3085.22 3.68,2090.31 15.64,2075.12 1278.84,3070.04 "/>
  </g>
  <g>
   <path class="fil4" d="M3.68 1732.6c-4.19,-3.3 -4.91,-9.38 -1.61,-13.57 3.3,-4.19 9.38,-4.91 13.57,-1.61l-11.96 15.18zm597.93 470.95l-597.93 -470.95 11.96 -15.18 597.93 470.95 -11.96 15.18zm11.96 -15.18c4.19,3.3 4.91,9.38 1.61,13.57 -3.3,4.19 -9.38,4.91 -13.57,1.61l11.96 -15.18z"/>
  </g>
  <g>
   <path class="fil3" d="M3.68 764.55c-4.19,-3.3 -4.91,-9.38 -1.61,-13.57 3.3,-4.19 9.38,-4.91 13.57,-1.61l-11.96 15.18zm825.09 649.86l-825.09 -649.86 11.96 -15.18 825.09 649.86 -11.96 15.18zm11.96 -15.18c4.19,3.3 4.91,9.38 1.61,13.57 -3.3,4.19 -9.38,4.91 -13.57,1.61l11.96 -15.18z"/>
  </g>
 </g>
</svg>
