<svg xmlns="http://www.w3.org/2000/svg" xmlns:xlink="http://www.w3.org/1999/xlink" width="1080" zoomAndPan="magnify"
    viewBox="0 0 810 809.999993" height="1080" preserveAspectRatio="xMidYMid meet" version="1.0">

    <path fill="#ffffff" fill-opacity="1" transform="translate(149.765921, 387.000001)"
        d="M 92.234375 -74.859375 L 88.171875 -72.171875 C 85.703125 -75.835938 82.488281 -78.734375 78.53125 -80.859375 C 74.570312 -82.992188 70.28125 -84.0625 65.65625 -84.0625 C 58.144531 -84.0625 51.734375 -81.40625 46.421875 -76.09375 C 41.109375 -70.78125 38.453125 -64.367188 38.453125 -56.859375 C 38.453125 -49.347656 41.109375 -42.9375 46.421875 -37.625 C 51.734375 -32.320312 58.144531 -29.671875 65.65625 -29.671875 C 70.28125 -29.671875 74.570312 -30.742188 78.53125 -32.890625 C 82.488281 -35.046875 85.703125 -37.953125 88.171875 -41.609375 L 92.15625 -38.734375 C 89.226562 -34.429688 85.425781 -31.019531 80.75 -28.5 C 76.082031 -25.976562 71.050781 -24.71875 65.65625 -24.71875 C 61.300781 -24.71875 57.144531 -25.5625 53.1875 -27.25 C 49.226562 -28.945312 45.804688 -31.238281 42.921875 -34.125 C 40.035156 -37.007812 37.742188 -40.429688 36.046875 -44.390625 C 34.359375 -48.359375 33.515625 -52.515625 33.515625 -56.859375 C 33.515625 -61.210938 34.359375 -65.367188 36.046875 -69.328125 C 37.742188 -73.285156 40.035156 -76.707031 42.921875 -79.59375 C 45.804688 -82.476562 49.226562 -84.765625 53.1875 -86.453125 C 57.144531 -88.148438 61.300781 -89 65.65625 -89 C 71.101562 -89 76.160156 -87.726562 80.828125 -85.1875 C 85.492188 -82.644531 89.296875 -79.203125 92.234375 -74.859375 Z M 100.40625 -80.484375 L 96.28125 -77.8125 C 92.894531 -82.75 88.507812 -86.671875 83.125 -89.578125 C 77.75 -92.484375 71.925781 -93.9375 65.65625 -93.9375 C 58.925781 -93.9375 52.722656 -92.273438 47.046875 -88.953125 C 41.367188 -85.640625 36.867188 -81.144531 33.546875 -75.46875 C 30.222656 -69.789062 28.5625 -63.585938 28.5625 -56.859375 C 28.5625 -50.128906 30.222656 -43.925781 33.546875 -38.25 C 36.867188 -32.570312 41.367188 -28.070312 47.046875 -24.75 C 52.722656 -21.4375 58.925781 -19.78125 65.65625 -19.78125 C 71.925781 -19.78125 77.757812 -21.242188 83.15625 -24.171875 C 88.5625 -27.097656 92.957031 -31.054688 96.34375 -36.046875 L 100.40625 -33.234375 C 96.550781 -27.554688 91.566406 -23.066406 85.453125 -19.765625 C 79.347656 -16.472656 72.75 -14.828125 65.65625 -14.828125 C 58.050781 -14.828125 51.019531 -16.703125 44.5625 -20.453125 C 38.113281 -24.210938 33.007812 -29.320312 29.25 -35.78125 C 25.5 -42.238281 23.625 -49.265625 23.625 -56.859375 C 23.625 -64.460938 25.5 -71.488281 29.25 -77.9375 C 33.007812 -84.394531 38.113281 -89.5 44.5625 -93.25 C 51.019531 -97.007812 58.050781 -98.890625 65.65625 -98.890625 C 72.75 -98.890625 79.347656 -97.238281 85.453125 -93.9375 C 91.566406 -90.644531 96.550781 -86.160156 100.40625 -80.484375 Z M 108.640625 -85.984375 L 104.515625 -83.296875 C 100.210938 -89.617188 94.640625 -94.617188 87.796875 -98.296875 C 80.953125 -101.984375 73.570312 -103.828125 65.65625 -103.828125 C 59.289062 -103.828125 53.195312 -102.59375 47.375 -100.125 C 41.5625 -97.65625 36.5625 -94.320312 32.375 -90.125 C 28.1875 -85.9375 24.851562 -80.9375 22.375 -75.125 C 19.90625 -69.3125 18.671875 -63.222656 18.671875 -56.859375 C 18.671875 -50.492188 19.90625 -44.40625 22.375 -38.59375 C 24.851562 -32.78125 28.1875 -27.78125 32.375 -23.59375 C 36.5625 -19.40625 41.5625 -16.070312 47.375 -13.59375 C 53.195312 -11.125 59.289062 -9.890625 65.65625 -9.890625 C 73.613281 -9.890625 81.003906 -11.742188 87.828125 -15.453125 C 94.648438 -19.160156 100.210938 -24.171875 104.515625 -30.484375 L 108.5 -27.53125 C 103.738281 -20.570312 97.59375 -15.066406 90.0625 -11.015625 C 82.53125 -6.960938 74.394531 -4.9375 65.65625 -4.9375 C 56.269531 -4.9375 47.59375 -7.257812 39.625 -11.90625 C 31.65625 -16.5625 25.347656 -22.867188 20.703125 -30.828125 C 16.054688 -38.796875 13.734375 -47.472656 13.734375 -56.859375 C 13.734375 -66.242188 16.054688 -74.921875 20.703125 -82.890625 C 25.347656 -90.859375 31.65625 -97.164062 39.625 -101.8125 C 47.59375 -106.457031 56.269531 -108.78125 65.65625 -108.78125 C 74.4375 -108.78125 82.601562 -106.726562 90.15625 -102.625 C 97.71875 -98.53125 103.878906 -92.984375 108.640625 -85.984375 Z M 116.75 -91.609375 L 112.625 -88.9375 C 107.40625 -96.582031 100.660156 -102.625 92.390625 -107.0625 C 84.128906 -111.5 75.21875 -113.71875 65.65625 -113.71875 C 57.957031 -113.71875 50.59375 -112.21875 43.5625 -109.21875 C 36.539062 -106.21875 30.488281 -102.175781 25.40625 -97.09375 C 20.320312 -92.019531 16.28125 -85.96875 13.28125 -78.9375 C 10.289062 -71.90625 8.796875 -64.546875 8.796875 -56.859375 C 8.796875 -49.171875 10.289062 -41.8125 13.28125 -34.78125 C 16.28125 -27.75 20.320312 -21.691406 25.40625 -16.609375 C 30.488281 -11.535156 36.539062 -7.5 43.5625 -4.5 C 50.59375 -1.5 57.957031 0 65.65625 0 C 75.21875 0 84.140625 -2.238281 92.421875 -6.71875 C 100.710938 -11.207031 107.46875 -17.273438 112.6875 -24.921875 L 116.671875 -21.90625 C 110.992188 -13.664062 103.664062 -7.128906 94.6875 -2.296875 C 85.71875 2.523438 76.039062 4.9375 65.65625 4.9375 C 57.269531 4.9375 49.265625 3.300781 41.640625 0.03125 C 34.023438 -3.238281 27.457031 -7.628906 21.9375 -13.140625 C 16.425781 -18.660156 12.03125 -25.234375 8.75 -32.859375 C 5.476562 -40.484375 3.84375 -48.484375 3.84375 -56.859375 C 3.84375 -65.234375 5.476562 -73.234375 8.75 -80.859375 C 12.03125 -88.484375 16.425781 -95.050781 21.9375 -100.5625 C 27.457031 -106.082031 34.023438 -110.476562 41.640625 -113.75 C 49.265625 -117.03125 57.269531 -118.671875 65.65625 -118.671875 C 76.09375 -118.671875 85.796875 -116.242188 94.765625 -111.390625 C 103.742188 -106.535156 111.070312 -99.941406 116.75 -91.609375 Z M 116.75 -91.609375 " />

    <path fill="#ffffff" fill-opacity="1" transform="translate(269.595547, 387.000001)"
        d="M 6.390625 -113.71875 L 11.328125 -113.71875 L 11.328125 0 L 6.390625 0 Z M 36.046875 -113.71875 L 41 -113.71875 L 41 -24.71875 L 80.546875 -24.71875 L 80.546875 -19.78125 L 41 -19.78125 L 41 -14.828125 L 80.546875 -14.828125 L 80.546875 -9.890625 L 41 -9.890625 L 41 -4.9375 L 80.546875 -4.9375 L 80.546875 0 L 36.046875 0 Z M 26.171875 -113.71875 L 31.109375 -113.71875 L 31.109375 0 L 26.171875 0 Z M 16.28125 -113.71875 L 21.21875 -113.71875 L 21.21875 0 L 16.28125 0 Z M 16.28125 -113.71875 " />

    <path fill="#ffffff" fill-opacity="1" transform="translate(354.678005, 387.000001)"
        d="M 31.109375 0 L 26.171875 0 L 26.171875 -113.71875 L 31.109375 -113.71875 Z M 21.21875 0 L 16.28125 0 L 16.28125 -113.71875 L 21.21875 -113.71875 Z M 11.328125 0 L 6.390625 0 L 6.390625 -113.71875 L 11.328125 -113.71875 Z M 41 -24.71875 L 93.59375 -24.71875 L 93.59375 -19.78125 L 41 -19.78125 L 41 -14.828125 L 93.59375 -14.828125 L 93.59375 -9.890625 L 41 -9.890625 L 41 -4.9375 L 93.59375 -4.9375 L 93.59375 0 L 36.046875 0 L 36.046875 -113.71875 L 93.59375 -113.71875 L 93.59375 -108.78125 L 41 -108.78125 L 41 -103.828125 L 93.59375 -103.828125 L 93.59375 -98.890625 L 41 -98.890625 L 41 -93.9375 L 93.59375 -93.9375 L 93.59375 -89 L 41 -89 L 41 -69.21875 L 67.984375 -69.21875 L 67.984375 -64.28125 L 41 -64.28125 L 41 -59.328125 L 67.984375 -59.328125 L 67.984375 -54.390625 L 41 -54.390625 L 41 -49.4375 L 67.984375 -49.4375 L 67.984375 -44.5 L 41 -44.5 Z M 41 -24.71875 " />

    <path fill="#ffffff" fill-opacity="1" transform="translate(454.04389, 387.000001)"
        d="M 55.484375 -33.375 L 57.484375 -38.3125 L 74.375 -38.3125 L 76.359375 -33.375 Z M 51.640625 -23.484375 L 53.5625 -28.4375 L 78.21875 -28.4375 L 80.34375 -23.484375 Z M 47.796875 -13.59375 L 49.71875 -18.546875 L 82.125 -18.546875 L 84.1875 -13.59375 Z M 7.625 0 L 2.265625 0 L 47.25 -113.71875 L 52.609375 -113.71875 L 97.515625 0 L 92.234375 0 L 49.921875 -107.0625 Z M 50.546875 -95.3125 L 53.359375 -89 L 18.203125 0 L 12.90625 0 Z M 56.03125 -82.265625 L 58.640625 -75.46875 L 28.90625 0 L 23.546875 0 Z M 61.25 -68.671875 L 63.859375 -61.734375 L 39.484375 0 L 34.203125 0 Z M 129.453125 0 L 124.09375 0 L 79.171875 -113.71875 L 84.46875 -113.71875 Z M 73.828125 -113.71875 L 118.796875 0 L 113.515625 0 L 68.53125 -113.71875 Z M 63.171875 -113.71875 L 108.15625 0 L 102.796875 0 L 57.890625 -113.71875 Z M 63.171875 -113.71875 " />

    <path fill="#ffffff" fill-opacity="1" transform="translate(585.753476, 387.000001)"
        d="M 87.140625 -54.734375 L 82.203125 -62.90625 L 82.203125 -113.71875 L 87.140625 -113.71875 Z M 97.03125 -38.53125 L 92.09375 -46.828125 L 92.09375 -113.71875 L 97.03125 -113.71875 Z M 106.921875 -22.109375 L 101.984375 -30.484375 L 101.984375 -113.71875 L 106.921875 -113.71875 Z M 36.046875 -58.984375 L 41 -50.8125 L 41 0 L 36.046875 0 Z M 26.171875 -75.203125 L 31.109375 -66.890625 L 31.109375 0 L 26.171875 0 Z M 16.28125 -91.609375 L 21.21875 -83.234375 L 21.21875 0 L 16.28125 0 Z M 17.984375 -113.71875 L 23.765625 -113.71875 L 93.671875 0 L 87.90625 0 Z M 29.671875 -113.71875 L 35.5 -113.71875 L 105.34375 0 L 99.4375 0 Z M 41.265625 -113.71875 L 47.046875 -113.71875 L 111.859375 -8.03125 L 111.859375 -113.71875 L 116.8125 -113.71875 L 116.8125 0 C 116.8125 0 114.863281 0 110.96875 0 Z M 11.328125 -105.6875 L 11.328125 0 L 6.390625 0 L 6.390625 -113.71875 C 6.390625 -113.71875 8.359375 -113.71875 12.296875 -113.71875 L 82 0 L 76.296875 0 Z M 11.328125 -105.6875 " />

    <path fill="#ffffff" fill-opacity="1" transform="translate(194.719044, 527.249993)"
        d="M 92.234375 -74.859375 L 88.171875 -72.171875 C 85.703125 -75.835938 82.488281 -78.734375 78.53125 -80.859375 C 74.570312 -82.992188 70.28125 -84.0625 65.65625 -84.0625 C 58.144531 -84.0625 51.734375 -81.40625 46.421875 -76.09375 C 41.109375 -70.78125 38.453125 -64.367188 38.453125 -56.859375 C 38.453125 -49.347656 41.109375 -42.9375 46.421875 -37.625 C 51.734375 -32.320312 58.144531 -29.671875 65.65625 -29.671875 C 70.28125 -29.671875 74.570312 -30.742188 78.53125 -32.890625 C 82.488281 -35.046875 85.703125 -37.953125 88.171875 -41.609375 L 92.15625 -38.734375 C 89.226562 -34.429688 85.425781 -31.019531 80.75 -28.5 C 76.082031 -25.976562 71.050781 -24.71875 65.65625 -24.71875 C 61.300781 -24.71875 57.144531 -25.5625 53.1875 -27.25 C 49.226562 -28.945312 45.804688 -31.238281 42.921875 -34.125 C 40.035156 -37.007812 37.742188 -40.429688 36.046875 -44.390625 C 34.359375 -48.359375 33.515625 -52.515625 33.515625 -56.859375 C 33.515625 -61.210938 34.359375 -65.367188 36.046875 -69.328125 C 37.742188 -73.285156 40.035156 -76.707031 42.921875 -79.59375 C 45.804688 -82.476562 49.226562 -84.765625 53.1875 -86.453125 C 57.144531 -88.148438 61.300781 -89 65.65625 -89 C 71.101562 -89 76.160156 -87.726562 80.828125 -85.1875 C 85.492188 -82.644531 89.296875 -79.203125 92.234375 -74.859375 Z M 100.40625 -80.484375 L 96.28125 -77.8125 C 92.894531 -82.75 88.507812 -86.671875 83.125 -89.578125 C 77.75 -92.484375 71.925781 -93.9375 65.65625 -93.9375 C 58.925781 -93.9375 52.722656 -92.273438 47.046875 -88.953125 C 41.367188 -85.640625 36.867188 -81.144531 33.546875 -75.46875 C 30.222656 -69.789062 28.5625 -63.585938 28.5625 -56.859375 C 28.5625 -50.128906 30.222656 -43.925781 33.546875 -38.25 C 36.867188 -32.570312 41.367188 -28.070312 47.046875 -24.75 C 52.722656 -21.4375 58.925781 -19.78125 65.65625 -19.78125 C 71.925781 -19.78125 77.757812 -21.242188 83.15625 -24.171875 C 88.5625 -27.097656 92.957031 -31.054688 96.34375 -36.046875 L 100.40625 -33.234375 C 96.550781 -27.554688 91.566406 -23.066406 85.453125 -19.765625 C 79.347656 -16.472656 72.75 -14.828125 65.65625 -14.828125 C 58.050781 -14.828125 51.019531 -16.703125 44.5625 -20.453125 C 38.113281 -24.210938 33.007812 -29.320312 29.25 -35.78125 C 25.5 -42.238281 23.625 -49.265625 23.625 -56.859375 C 23.625 -64.460938 25.5 -71.488281 29.25 -77.9375 C 33.007812 -84.394531 38.113281 -89.5 44.5625 -93.25 C 51.019531 -97.007812 58.050781 -98.890625 65.65625 -98.890625 C 72.75 -98.890625 79.347656 -97.238281 85.453125 -93.9375 C 91.566406 -90.644531 96.550781 -86.160156 100.40625 -80.484375 Z M 108.640625 -85.984375 L 104.515625 -83.296875 C 100.210938 -89.617188 94.640625 -94.617188 87.796875 -98.296875 C 80.953125 -101.984375 73.570312 -103.828125 65.65625 -103.828125 C 59.289062 -103.828125 53.195312 -102.59375 47.375 -100.125 C 41.5625 -97.65625 36.5625 -94.320312 32.375 -90.125 C 28.1875 -85.9375 24.851562 -80.9375 22.375 -75.125 C 19.90625 -69.3125 18.671875 -63.222656 18.671875 -56.859375 C 18.671875 -50.492188 19.90625 -44.40625 22.375 -38.59375 C 24.851562 -32.78125 28.1875 -27.78125 32.375 -23.59375 C 36.5625 -19.40625 41.5625 -16.070312 47.375 -13.59375 C 53.195312 -11.125 59.289062 -9.890625 65.65625 -9.890625 C 73.613281 -9.890625 81.003906 -11.742188 87.828125 -15.453125 C 94.648438 -19.160156 100.210938 -24.171875 104.515625 -30.484375 L 108.5 -27.53125 C 103.738281 -20.570312 97.59375 -15.066406 90.0625 -11.015625 C 82.53125 -6.960938 74.394531 -4.9375 65.65625 -4.9375 C 56.269531 -4.9375 47.59375 -7.257812 39.625 -11.90625 C 31.65625 -16.5625 25.347656 -22.867188 20.703125 -30.828125 C 16.054688 -38.796875 13.734375 -47.472656 13.734375 -56.859375 C 13.734375 -66.242188 16.054688 -74.921875 20.703125 -82.890625 C 25.347656 -90.859375 31.65625 -97.164062 39.625 -101.8125 C 47.59375 -106.457031 56.269531 -108.78125 65.65625 -108.78125 C 74.4375 -108.78125 82.601562 -106.726562 90.15625 -102.625 C 97.71875 -98.53125 103.878906 -92.984375 108.640625 -85.984375 Z M 116.75 -91.609375 L 112.625 -88.9375 C 107.40625 -96.582031 100.660156 -102.625 92.390625 -107.0625 C 84.128906 -111.5 75.21875 -113.71875 65.65625 -113.71875 C 57.957031 -113.71875 50.59375 -112.21875 43.5625 -109.21875 C 36.539062 -106.21875 30.488281 -102.175781 25.40625 -97.09375 C 20.320312 -92.019531 16.28125 -85.96875 13.28125 -78.9375 C 10.289062 -71.90625 8.796875 -64.546875 8.796875 -56.859375 C 8.796875 -49.171875 10.289062 -41.8125 13.28125 -34.78125 C 16.28125 -27.75 20.320312 -21.691406 25.40625 -16.609375 C 30.488281 -11.535156 36.539062 -7.5 43.5625 -4.5 C 50.59375 -1.5 57.957031 0 65.65625 0 C 75.21875 0 84.140625 -2.238281 92.421875 -6.71875 C 100.710938 -11.207031 107.46875 -17.273438 112.6875 -24.921875 L 116.671875 -21.90625 C 110.992188 -13.664062 103.664062 -7.128906 94.6875 -2.296875 C 85.71875 2.523438 76.039062 4.9375 65.65625 4.9375 C 57.269531 4.9375 49.265625 3.300781 41.640625 0.03125 C 34.023438 -3.238281 27.457031 -7.628906 21.9375 -13.140625 C 16.425781 -18.660156 12.03125 -25.234375 8.75 -32.859375 C 5.476562 -40.484375 3.84375 -48.484375 3.84375 -56.859375 C 3.84375 -65.234375 5.476562 -73.234375 8.75 -80.859375 C 12.03125 -88.484375 16.425781 -95.050781 21.9375 -100.5625 C 27.457031 -106.082031 34.023438 -110.476562 41.640625 -113.75 C 49.265625 -117.03125 57.269531 -118.671875 65.65625 -118.671875 C 76.09375 -118.671875 85.796875 -116.242188 94.765625 -111.390625 C 103.742188 -106.535156 111.070312 -99.941406 116.75 -91.609375 Z M 116.75 -91.609375 " />

    <path fill="#ffffff" fill-opacity="1" transform="translate(314.548669, 527.249993)"
        d="M 46.421875 -76.09375 C 41.109375 -70.78125 38.453125 -64.367188 38.453125 -56.859375 C 38.453125 -49.347656 41.109375 -42.9375 46.421875 -37.625 C 51.734375 -32.320312 58.140625 -29.671875 65.640625 -29.671875 C 73.148438 -29.671875 79.5625 -32.320312 84.875 -37.625 C 90.1875 -42.9375 92.84375 -49.347656 92.84375 -56.859375 C 92.84375 -64.367188 90.1875 -70.78125 84.875 -76.09375 C 79.5625 -81.40625 73.148438 -84.0625 65.640625 -84.0625 C 58.140625 -84.0625 51.734375 -81.40625 46.421875 -76.09375 Z M 36.046875 -44.390625 C 34.359375 -48.359375 33.515625 -52.515625 33.515625 -56.859375 C 33.515625 -61.210938 34.359375 -65.367188 36.046875 -69.328125 C 37.742188 -73.285156 40.035156 -76.707031 42.921875 -79.59375 C 45.804688 -82.476562 49.226562 -84.765625 53.1875 -86.453125 C 57.144531 -88.148438 61.296875 -89 65.640625 -89 C 69.992188 -89 74.148438 -88.148438 78.109375 -86.453125 C 82.078125 -84.765625 85.5 -82.476562 88.375 -79.59375 C 91.257812 -76.707031 93.550781 -73.285156 95.25 -69.328125 C 96.945312 -65.367188 97.796875 -61.210938 97.796875 -56.859375 C 97.796875 -52.515625 96.945312 -48.359375 95.25 -44.390625 C 93.550781 -40.429688 91.257812 -37.007812 88.375 -34.125 C 85.5 -31.238281 82.078125 -28.945312 78.109375 -27.25 C 74.148438 -25.5625 69.992188 -24.71875 65.640625 -24.71875 C 61.296875 -24.71875 57.144531 -25.5625 53.1875 -27.25 C 49.226562 -28.945312 45.804688 -31.238281 42.921875 -34.125 C 40.035156 -37.007812 37.742188 -40.429688 36.046875 -44.390625 Z M 33.546875 -75.46875 C 30.222656 -69.789062 28.5625 -63.585938 28.5625 -56.859375 C 28.5625 -50.128906 30.222656 -43.925781 33.546875 -38.25 C 36.867188 -32.570312 41.367188 -28.070312 47.046875 -24.75 C 52.722656 -21.4375 58.925781 -19.78125 65.65625 -19.78125 C 72.382812 -19.78125 78.585938 -21.4375 84.265625 -24.75 C 89.941406 -28.070312 94.4375 -32.570312 97.75 -38.25 C 101.070312 -43.925781 102.734375 -50.128906 102.734375 -56.859375 C 102.734375 -63.585938 101.070312 -69.789062 97.75 -75.46875 C 94.4375 -81.144531 89.941406 -85.640625 84.265625 -88.953125 C 78.585938 -92.273438 72.382812 -93.9375 65.65625 -93.9375 C 58.925781 -93.9375 52.722656 -92.273438 47.046875 -88.953125 C 41.367188 -85.640625 36.867188 -81.144531 33.546875 -75.46875 Z M 29.25 -35.78125 C 25.5 -42.238281 23.625 -49.265625 23.625 -56.859375 C 23.625 -64.460938 25.5 -71.488281 29.25 -77.9375 C 33.007812 -84.394531 38.113281 -89.5 44.5625 -93.25 C 51.019531 -97.007812 58.046875 -98.890625 65.640625 -98.890625 C 73.242188 -98.890625 80.273438 -97.007812 86.734375 -93.25 C 93.191406 -89.5 98.296875 -84.394531 102.046875 -77.9375 C 105.796875 -71.488281 107.671875 -64.460938 107.671875 -56.859375 C 107.671875 -49.265625 105.796875 -42.238281 102.046875 -35.78125 C 98.296875 -29.320312 93.191406 -24.210938 86.734375 -20.453125 C 80.273438 -16.703125 73.242188 -14.828125 65.640625 -14.828125 C 58.046875 -14.828125 51.019531 -16.703125 44.5625 -20.453125 C 38.113281 -24.210938 33.007812 -29.320312 29.25 -35.78125 Z M 22.375 -75.125 C 19.90625 -69.3125 18.671875 -63.222656 18.671875 -56.859375 C 18.671875 -50.492188 19.90625 -44.40625 22.375 -38.59375 C 24.851562 -32.78125 28.1875 -27.78125 32.375 -23.59375 C 36.5625 -19.40625 41.5625 -16.070312 47.375 -13.59375 C 53.195312 -11.125 59.289062 -9.890625 65.65625 -9.890625 C 72.019531 -9.890625 78.109375 -11.125 83.921875 -13.59375 C 89.734375 -16.070312 94.734375 -19.40625 98.921875 -23.59375 C 103.109375 -27.78125 106.4375 -32.78125 108.90625 -38.59375 C 111.382812 -44.40625 112.625 -50.492188 112.625 -56.859375 C 112.625 -63.222656 111.382812 -69.3125 108.90625 -75.125 C 106.4375 -80.9375 103.109375 -85.9375 98.921875 -90.125 C 94.734375 -94.320312 89.734375 -97.65625 83.921875 -100.125 C 78.109375 -102.59375 72.019531 -103.828125 65.65625 -103.828125 C 59.289062 -103.828125 53.195312 -102.59375 47.375 -100.125 C 41.5625 -97.65625 36.5625 -94.320312 32.375 -90.125 C 28.1875 -85.9375 24.851562 -80.9375 22.375 -75.125 Z M 20.703125 -30.828125 C 16.054688 -38.796875 13.734375 -47.472656 13.734375 -56.859375 C 13.734375 -66.242188 16.054688 -74.921875 20.703125 -82.890625 C 25.347656 -90.859375 31.65625 -97.164062 39.625 -101.8125 C 47.59375 -106.457031 56.269531 -108.78125 65.65625 -108.78125 C 75.039062 -108.78125 83.710938 -106.457031 91.671875 -101.8125 C 99.640625 -97.164062 105.945312 -90.859375 110.59375 -82.890625 C 115.238281 -74.921875 117.5625 -66.242188 117.5625 -56.859375 C 117.5625 -47.472656 115.238281 -38.796875 110.59375 -30.828125 C 105.945312 -22.867188 99.640625 -16.5625 91.671875 -11.90625 C 83.710938 -7.257812 75.039062 -4.9375 65.65625 -4.9375 C 56.269531 -4.9375 47.59375 -7.257812 39.625 -11.90625 C 31.65625 -16.5625 25.347656 -22.867188 20.703125 -30.828125 Z M 13.28125 -78.9375 C 10.289062 -71.90625 8.796875 -64.546875 8.796875 -56.859375 C 8.796875 -49.171875 10.289062 -41.8125 13.28125 -34.78125 C 16.28125 -27.75 20.320312 -21.691406 25.40625 -16.609375 C 30.488281 -11.535156 36.539062 -7.5 43.5625 -4.5 C 50.59375 -1.5 57.953125 0 65.640625 0 C 73.335938 0 80.695312 -1.5 87.71875 -4.5 C 94.75 -7.5 100.804688 -11.535156 105.890625 -16.609375 C 110.972656 -21.691406 115.015625 -27.75 118.015625 -34.78125 C 121.015625 -41.8125 122.515625 -49.171875 122.515625 -56.859375 C 122.515625 -64.546875 121.015625 -71.90625 118.015625 -78.9375 C 115.015625 -85.96875 110.972656 -92.019531 105.890625 -97.09375 C 100.804688 -102.175781 94.75 -106.21875 87.71875 -109.21875 C 80.695312 -112.21875 73.335938 -113.71875 65.640625 -113.71875 C 57.953125 -113.71875 50.59375 -112.21875 43.5625 -109.21875 C 36.539062 -106.21875 30.488281 -102.175781 25.40625 -97.09375 C 20.320312 -92.019531 16.28125 -85.96875 13.28125 -78.9375 Z M 8.75 -32.859375 C 5.476562 -40.484375 3.84375 -48.484375 3.84375 -56.859375 C 3.84375 -65.234375 5.476562 -73.234375 8.75 -80.859375 C 12.03125 -88.484375 16.425781 -95.050781 21.9375 -100.5625 C 27.457031 -106.082031 34.023438 -110.476562 41.640625 -113.75 C 49.265625 -117.03125 57.265625 -118.671875 65.640625 -118.671875 C 74.023438 -118.671875 82.023438 -117.03125 89.640625 -113.75 C 97.265625 -110.476562 103.835938 -106.082031 109.359375 -100.5625 C 114.878906 -95.050781 119.273438 -88.484375 122.546875 -80.859375 C 125.816406 -73.234375 127.453125 -65.234375 127.453125 -56.859375 C 127.453125 -48.484375 125.816406 -40.484375 122.546875 -32.859375 C 119.273438 -25.234375 114.878906 -18.660156 109.359375 -13.140625 C 103.835938 -7.628906 97.265625 -3.238281 89.640625 0.03125 C 82.023438 3.300781 74.023438 4.9375 65.640625 4.9375 C 57.265625 4.9375 49.265625 3.300781 41.640625 0.03125 C 34.023438 -3.238281 27.457031 -7.628906 21.9375 -13.140625 C 16.425781 -18.660156 12.03125 -25.234375 8.75 -32.859375 Z M 8.75 -32.859375 " />

    <path fill="#ffffff" fill-opacity="1" transform="translate(445.846213, 527.249993)"
        d="M 36.046875 -29.671875 L 36.046875 -84.0625 C 36.046875 -84.0625 47.285156 -84.0625 69.765625 -84.0625 C 75.210938 -84.0625 79.894531 -81.390625 83.8125 -76.046875 C 87.726562 -70.710938 89.6875 -64.316406 89.6875 -56.859375 C 89.6875 -49.347656 87.726562 -42.9375 83.8125 -37.625 C 79.894531 -32.320312 75.210938 -29.671875 69.765625 -29.671875 Z M 41 -34.609375 L 69.765625 -34.609375 C 73.835938 -34.609375 77.328125 -36.78125 80.234375 -41.125 C 83.148438 -45.476562 84.609375 -50.722656 84.609375 -56.859375 C 84.609375 -63.035156 83.148438 -68.285156 80.234375 -72.609375 C 77.328125 -76.941406 73.835938 -79.109375 69.765625 -79.109375 L 41 -79.109375 Z M 31.109375 -24.71875 L 69.765625 -24.71875 C 76.585938 -24.71875 82.457031 -27.863281 87.375 -34.15625 C 92.300781 -40.457031 94.765625 -48.023438 94.765625 -56.859375 C 94.765625 -62.671875 93.628906 -68.050781 91.359375 -73 C 89.097656 -77.945312 86.054688 -81.847656 82.234375 -84.703125 C 78.410156 -87.566406 74.253906 -89 69.765625 -89 L 31.109375 -89 Z M 26.171875 -19.78125 L 26.171875 -93.9375 L 69.765625 -93.9375 C 75.128906 -93.9375 80.117188 -92.289062 84.734375 -89 C 89.359375 -85.707031 93.03125 -81.207031 95.75 -75.5 C 98.476562 -69.800781 99.84375 -63.585938 99.84375 -56.859375 C 99.84375 -50.171875 98.476562 -43.96875 95.75 -38.25 C 93.03125 -32.53125 89.359375 -28.019531 84.734375 -24.71875 C 80.117188 -21.425781 75.128906 -19.78125 69.765625 -19.78125 Z M 21.21875 -14.828125 L 69.765625 -14.828125 C 76.035156 -14.828125 81.859375 -16.703125 87.234375 -20.453125 C 92.617188 -24.210938 96.914062 -29.320312 100.125 -35.78125 C 103.332031 -42.238281 104.9375 -49.265625 104.9375 -56.859375 C 104.9375 -64.410156 103.332031 -71.425781 100.125 -77.90625 C 96.914062 -84.382812 92.609375 -89.5 87.203125 -93.25 C 81.804688 -97.007812 75.992188 -98.890625 69.765625 -98.890625 L 21.21875 -98.890625 Z M 16.28125 -9.890625 L 16.28125 -103.828125 L 69.765625 -103.828125 C 76.910156 -103.828125 83.570312 -101.734375 89.75 -97.546875 C 95.9375 -93.359375 100.859375 -87.644531 104.515625 -80.40625 C 108.179688 -73.175781 110.015625 -65.328125 110.015625 -56.859375 C 110.015625 -48.390625 108.179688 -40.535156 104.515625 -33.296875 C 100.859375 -26.066406 95.9375 -20.359375 89.75 -16.171875 C 83.570312 -11.984375 76.910156 -9.890625 69.765625 -9.890625 Z M 11.328125 -4.9375 L 69.765625 -4.9375 C 75.765625 -4.9375 81.554688 -6.3125 87.140625 -9.0625 C 92.722656 -11.8125 97.550781 -15.5 101.625 -20.125 C 105.707031 -24.75 108.972656 -30.273438 111.421875 -36.703125 C 113.867188 -43.140625 115.09375 -49.859375 115.09375 -56.859375 C 115.09375 -63.867188 113.867188 -70.578125 111.421875 -76.984375 C 108.972656 -83.390625 105.707031 -88.914062 101.625 -93.5625 C 97.550781 -98.207031 92.722656 -101.90625 87.140625 -104.65625 C 81.554688 -107.40625 75.765625 -108.78125 69.765625 -108.78125 L 11.328125 -108.78125 Z M 69.765625 0 L 6.390625 0 L 6.390625 -113.71875 L 69.765625 -113.71875 C 78.691406 -113.71875 87.023438 -111.175781 94.765625 -106.09375 C 102.503906 -101.007812 108.671875 -94.097656 113.265625 -85.359375 C 117.867188 -76.617188 120.171875 -67.117188 120.171875 -56.859375 C 120.171875 -49.171875 118.804688 -41.8125 116.078125 -34.78125 C 113.359375 -27.75 109.734375 -21.691406 105.203125 -16.609375 C 100.671875 -11.535156 95.300781 -7.5 89.09375 -4.5 C 82.894531 -1.5 76.453125 0 69.765625 0 Z M 69.765625 0 " />

    <path fill="#ffffff" fill-opacity="1" transform="translate(570.482757, 527.249993)"
        d="M 31.109375 0 L 26.171875 0 L 26.171875 -98.890625 L 31.109375 -98.890625 Z M 21.21875 0 L 16.28125 0 L 16.28125 -98.890625 L 21.21875 -98.890625 Z M 11.328125 0 L 6.390625 0 L 6.390625 -98.890625 L 11.328125 -98.890625 Z M 41 -24.71875 L 88.3125 -24.71875 L 88.3125 -19.78125 L 41 -19.78125 L 41 -14.828125 L 88.3125 -14.828125 L 88.3125 -9.890625 L 41 -9.890625 L 41 -4.9375 L 88.3125 -4.9375 L 88.3125 0 L 36.046875 0 L 36.046875 -98.890625 L 88.3125 -98.890625 L 88.3125 -93.9375 L 41 -93.9375 L 41 -89 L 88.3125 -89 L 88.3125 -84.0625 L 41 -84.0625 L 41 -79.109375 L 88.3125 -79.109375 L 88.3125 -74.171875 L 41 -74.171875 L 41 -61.875 L 85.5625 -61.875 L 85.5625 -56.921875 L 41 -56.921875 L 41 -51.984375 L 85.5625 -51.984375 L 85.5625 -47.046875 L 41 -47.046875 L 41 -42.09375 L 85.5625 -42.09375 L 85.5625 -37.15625 L 41 -37.15625 Z M 41 -24.71875 " />

</svg>