<?xml version="1.0" encoding="UTF-8"?>
<!DOCTYPE svg PUBLIC "-//W3C//DTD SVG 1.1//EN" "http://www.w3.org/Graphics/SVG/1.1/DTD/svg11.dtd">
<!-- Creator: CorelDRAW -->
<svg xmlns="http://www.w3.org/2000/svg" xml:space="preserve" width="9.2423mm" height="11.7267mm" version="1.1" style="shape-rendering:geometricPrecision; text-rendering:geometricPrecision; image-rendering:optimizeQuality; fill-rule:evenodd; clip-rule:evenodd"
viewBox="0 0 72.87 92.46"
 xmlns:xodm="http://www.corel.com/coreldraw/odm/2003">
 <defs>
  <style type="text/css">
   <![CDATA[
    .fil0 {fill:#FA8825;fill-rule:nonzero}
   ]]>
  </style>
 </defs>
 <g id="Layer_x0020_1">
  <metadata id="CorelCorpID_0Corel-Layer"/>
  <path class="fil0" d="M6.11 19.59l12.05 0.04c3.75,0.01 6.51,-3.43 5.78,-7.11 -0.11,-0.58 -0.17,-1.17 -0.17,-1.77 0.02,-5.96 5.86,-10.77 13.04,-10.75 7.18,0.02 12.99,4.87 12.97,10.83 -0,0.6 -0.06,1.2 -0.18,1.77 -0.75,3.68 1.99,7.13 5.74,7.14l11.65 0.04c3.25,0.01 5.88,2.66 5.87,5.91l-0.04 11.94c-0.01,3.79 -3.55,6.6 -7.23,5.72 -0.67,-0.16 -1.36,-0.25 -2.07,-0.25 -5.96,-0.02 -10.81,5.79 -10.83,12.97 -0.02,7.18 4.79,13.02 10.75,13.04 0.71,0 1.4,-0.08 2.07,-0.23 3.69,-0.86 7.21,1.98 7.19,5.76l-0.04 11.94c-0.01,3.25 -2.66,5.88 -5.91,5.87l-60.89 -0.2c-3.25,-0.01 -5.88,-2.66 -5.87,-5.91l0.2 -60.89c0.01,-3.25 2.66,-5.88 5.91,-5.87z"/>
 </g>
</svg>
