<?xml version="1.0" encoding="UTF-8"?>
<!DOCTYPE svg PUBLIC "-//W3C//DTD SVG 1.1//EN" "http://www.w3.org/Graphics/SVG/1.1/DTD/svg11.dtd">
<!-- Creator: CorelDRAW -->
<svg xmlns="http://www.w3.org/2000/svg" xml:space="preserve" width="11.7765mm" height="12.5108mm" version="1.1" style="shape-rendering:geometricPrecision; text-rendering:geometricPrecision; image-rendering:optimizeQuality; fill-rule:evenodd; clip-rule:evenodd"
viewBox="0 0 198.34 210.71"
 xmlns:xodm="http://www.corel.com/coreldraw/odm/2003">
 <defs>
  <style type="text/css">
   <![CDATA[
    .fil0 {fill:#9BDCDE;fill-rule:nonzero}
   ]]>
  </style>
 </defs>
 <g id="Layer_x0020_1">
  <metadata id="CorelCorpID_0Corel-Layer"/>
  <path class="fil0" d="M7.21 69.14l23.28 -11c7.24,-3.42 9.4,-12.58 4.62,-19.02 -0.75,-1.01 -1.41,-2.1 -1.96,-3.27 -5.44,-11.51 1.41,-26.15 15.28,-32.71 13.88,-6.56 29.53,-2.54 34.97,8.97 0.55,1.17 0.98,2.36 1.28,3.59 1.94,7.77 10.38,11.93 17.63,8.51l22.5 -10.63c6.29,-2.97 13.79,-0.28 16.76,6l10.89 23.05c3.46,7.31 -0.78,15.98 -8.69,17.66 -1.44,0.31 -2.85,0.78 -4.22,1.43 -11.51,5.44 -15.52,21.09 -8.97,34.97 6.56,13.88 21.2,20.72 32.71,15.28 1.37,-0.65 2.63,-1.44 3.78,-2.36 6.33,-5.04 15.71,-2.81 19.17,4.5l10.89 23.05c2.97,6.29 0.28,13.79 -6,16.76l-117.6 55.56c-6.29,2.97 -13.79,0.28 -16.76,-6l-55.56 -117.6c-2.97,-6.29 -0.28,-13.79 6,-16.76z"/>
 </g>
</svg>
