<?xml version="1.0" encoding="UTF-8"?>
<!DOCTYPE svg PUBLIC "-//W3C//DTD SVG 1.1//EN" "http://www.w3.org/Graphics/SVG/1.1/DTD/svg11.dtd">
<!-- Creator: CorelDRAW -->
<svg xmlns="http://www.w3.org/2000/svg" xml:space="preserve" width="11.7686mm" height="11.7686mm" version="1.1" style="shape-rendering:geometricPrecision; text-rendering:geometricPrecision; image-rendering:optimizeQuality; fill-rule:evenodd; clip-rule:evenodd"
viewBox="0 0 139.12 139.12"
 xmlns:xodm="http://www.corel.com/coreldraw/odm/2003">
 <defs>
  <style type="text/css">
   <![CDATA[
    .fil0 {fill:#FDDA53;fill-rule:nonzero}
   ]]>
  </style>
 </defs>
 <g id="Layer_x0020_1">
  <metadata id="CorelCorpID_0Corel-Layer"/>
  <path class="fil0" d="M123.23 102.47c-0.9,0.01 -1.78,-0.06 -2.65,-0.22 -5.53,-1.01 -10.63,3.17 -10.55,8.79l0.26 17.76c0.07,4.88 -3.82,8.89 -8.7,8.96 -30.43,0.45 -60.85,0.9 -91.28,1.35 -4.88,0.07 -8.89,-3.83 -8.96,-8.7l-1.35 -91.28c-0.07,-4.88 3.83,-8.89 8.7,-8.96l17.76 -0.26c5.62,-0.08 9.65,-5.31 8.48,-10.81 -0.18,-0.86 -0.29,-1.74 -0.3,-2.64 -0.13,-8.93 8.49,-16.3 19.26,-16.46 10.77,-0.16 19.61,6.95 19.74,15.89 0.01,0.9 -0.06,1.78 -0.22,2.64 -1.01,5.53 3.17,10.63 8.79,10.55l17.76 -0.26c4.88,-0.07 8.89,3.82 8.97,8.7l0.26 17.76c0.08,5.62 5.31,9.65 10.8,8.48 0.86,-0.18 1.74,-0.28 2.64,-0.3 8.93,-0.13 16.3,8.49 16.46,19.27 0.16,10.77 -6.95,19.61 -15.89,19.74z"/>
 </g>
</svg>
