<?xml version="1.0" encoding="UTF-8"?>
<!DOCTYPE svg PUBLIC "-//W3C//DTD SVG 1.1//EN" "http://www.w3.org/Graphics/SVG/1.1/DTD/svg11.dtd">
<!-- Creator: CorelDRAW -->
<svg xmlns="http://www.w3.org/2000/svg" xml:space="preserve" width="11.969mm" height="11.9705mm" version="1.1" style="shape-rendering:geometricPrecision; text-rendering:geometricPrecision; image-rendering:optimizeQuality; fill-rule:evenodd; clip-rule:evenodd"
viewBox="0 0 172.4 172.42"
 xmlns:xodm="http://www.corel.com/coreldraw/odm/2003">
 <defs>
  <style type="text/css">
   <![CDATA[
    .fil0 {fill:#1D538F;fill-rule:nonzero}
   ]]>
  </style>
 </defs>
 <g id="Layer_x0020_1">
  <metadata id="CorelCorpID_0Corel-Layer"/>
  <path class="fil0" d="M153.13 82.03c1.29,0.1 2.54,0.34 3.74,0.72 6.6,2.07 13.4,-2.59 13.91,-9.49l1.59 -21.75c0.43,-5.93 -4.02,-11.09 -9.95,-11.52l-21.58 -1.58c-6.83,-0.5 -11.36,-7.14 -9.55,-13.75 0.28,-1.03 0.47,-2.09 0.55,-3.19 0.8,-10.85 -9.17,-20.43 -22.26,-21.39 -13.09,-0.96 -24.35,7.07 -25.14,17.92 -0.08,1.09 -0.05,2.17 0.08,3.23 0.84,6.8 -4.61,12.71 -11.45,12.21l-21.59 -1.58c-5.93,-0.43 -11.09,4.02 -11.52,9.95l-1.58 21.58c-0.5,6.83 -7.14,11.36 -13.74,9.55 -1.02,-0.28 -2.08,-0.47 -3.17,-0.54 -10.85,-0.8 -20.43,9.17 -21.39,22.26 -0.96,13.09 7.07,24.35 17.92,25.14 1.09,0.08 2.16,0.05 3.21,-0.08 6.8,-0.83 12.7,4.61 12.2,11.45l-1.58 21.58c-0.43,5.93 4.02,11.09 9.95,11.52l110.94 8.12c5.93,0.43 11.09,-4.02 11.52,-9.95l1.59 -21.75c0.51,-6.9 -5.54,-12.51 -12.37,-11.42 -1.24,0.2 -2.52,0.26 -3.81,0.16 -10.86,-0.8 -18.88,-12.05 -17.92,-25.14 0.96,-13.09 10.54,-23.06 21.39,-22.26z"/>
 </g>
</svg>
