<?xml version="1.0" encoding="UTF-8"?>
<!DOCTYPE svg PUBLIC "-//W3C//DTD SVG 1.1//EN" "http://www.w3.org/Graphics/SVG/1.1/DTD/svg11.dtd">
<!-- Creator: CorelDRAW -->
<svg xmlns="http://www.w3.org/2000/svg" xml:space="preserve" width="9.2423mm" height="11.7267mm" version="1.1" style="shape-rendering:geometricPrecision; text-rendering:geometricPrecision; image-rendering:optimizeQuality; fill-rule:evenodd; clip-rule:evenodd"
viewBox="0 0 85.67 108.7"
 xmlns:xodm="http://www.corel.com/coreldraw/odm/2003">
 <defs>
  <style type="text/css">
   <![CDATA[
    .fil0 {fill:#FA5456;fill-rule:nonzero}
   ]]>
  </style>
 </defs>
 <g id="Layer_x0020_1">
  <metadata id="CorelCorpID_0Corel-Layer"/>
  <path class="fil0" d="M7.18 23.03l14.17 0.05c4.41,0.01 7.65,-4.03 6.8,-8.35 -0.13,-0.68 -0.2,-1.38 -0.2,-2.09 0.02,-7 6.89,-12.66 15.34,-12.63 8.45,0.03 15.27,5.73 15.25,12.73 -0,0.71 -0.07,1.41 -0.21,2.08 -0.88,4.32 2.33,8.38 6.74,8.4l13.7 0.04c3.83,0.01 6.92,3.12 6.91,6.95l-0.05 14.03c-0.01,4.45 -4.17,7.75 -8.5,6.72 -0.79,-0.19 -1.6,-0.29 -2.44,-0.29 -7,-0.02 -12.71,6.81 -12.73,15.25 -0.03,8.45 5.63,15.31 12.63,15.33 0.83,0 1.65,-0.09 2.44,-0.28 4.34,-1.01 8.47,2.32 8.46,6.77l-0.05 14.03c-0.01,3.83 -3.12,6.92 -6.95,6.91l-71.58 -0.23c-3.83,-0.01 -6.92,-3.12 -6.91,-6.95l0.23 -71.58c0.01,-3.83 3.12,-6.92 6.95,-6.91z"/>
 </g>
</svg>
