<?xml version="1.0" encoding="UTF-8"?>
<!DOCTYPE svg PUBLIC "-//W3C//DTD SVG 1.1//EN" "http://www.w3.org/Graphics/SVG/1.1/DTD/svg11.dtd">
<!-- Creator: CorelDRAW -->
<svg xmlns="http://www.w3.org/2000/svg" xml:space="preserve" width="13.067mm" height="13.0653mm" version="1.1" style="shape-rendering:geometricPrecision; text-rendering:geometricPrecision; image-rendering:optimizeQuality; fill-rule:evenodd; clip-rule:evenodd"
viewBox="0 0 145.66 145.64"
 xmlns:xodm="http://www.corel.com/coreldraw/odm/2003">
 <defs>
  <style type="text/css">
   <![CDATA[
    .fil0 {fill:#9BDCDE;fill-rule:nonzero}
   ]]>
  </style>
 </defs>
 <g id="Layer_x0020_1">
  <metadata id="CorelCorpID_0Corel-Layer"/>
  <path class="fil0" d="M77.95 130.88c0,1.12 -0.13,2.21 -0.37,3.27 -1.36,5.81 3.1,11.36 9.07,11.35l18.82 -0.03c5.13,-0.01 9.28,-4.18 9.27,-9.31l-0.03 -18.67c-0.01,-5.91 5.41,-10.24 11.21,-9.1 0.9,0.18 1.83,0.27 2.78,0.27 9.39,-0.02 16.99,-9.21 16.97,-20.54 -0.02,-11.33 -7.65,-20.5 -17.04,-20.48 -0.95,0 -1.87,0.1 -2.78,0.28 -5.8,1.16 -11.23,-3.15 -11.24,-9.06l-0.03 -18.68c-0.01,-5.13 -4.18,-9.28 -9.31,-9.27l-18.67 0.03c-5.91,0.01 -10.23,-5.41 -9.1,-11.21 0.18,-0.9 0.27,-1.82 0.26,-2.76 -0.02,-9.39 -9.21,-16.99 -20.54,-16.97 -11.33,0.02 -20.5,7.65 -20.48,17.04 0,0.94 0.1,1.86 0.27,2.76 1.15,5.8 -3.15,11.23 -9.06,11.24l-18.67 0.03c-5.13,0.01 -9.28,4.17 -9.27,9.3l0.17 95.98c0.01,5.13 4.18,9.28 9.31,9.27l18.82 -0.03c5.97,-0.01 10.41,-5.58 9.03,-11.38 -0.25,-1.06 -0.38,-2.15 -0.39,-3.27 -0.02,-9.39 9.15,-17.02 20.48,-17.04 11.33,-0.02 20.52,7.58 20.54,16.97z"/>
 </g>
</svg>
