<?xml version="1.0" encoding="UTF-8"?>
<!DOCTYPE svg PUBLIC "-//W3C//DTD SVG 1.1//EN" "http://www.w3.org/Graphics/SVG/1.1/DTD/svg11.dtd">
<!-- Creator: CorelDRAW -->
<svg xmlns="http://www.w3.org/2000/svg" xml:space="preserve" width="9.2423mm" height="9.2422mm" version="1.1" style="shape-rendering:geometricPrecision; text-rendering:geometricPrecision; image-rendering:optimizeQuality; fill-rule:evenodd; clip-rule:evenodd"
viewBox="0 0 72.87 72.87"
 xmlns:xodm="http://www.corel.com/coreldraw/odm/2003">
 <defs>
  <style type="text/css">
   <![CDATA[
    .fil0 {fill:#FDDA53;fill-rule:nonzero}
   ]]>
  </style>
 </defs>
 <g id="Layer_x0020_1">
  <metadata id="CorelCorpID_0Corel-Layer"/>
  <path class="fil0" d="M0.04 18.04c0.01,3.79 3.55,6.6 7.23,5.72 0.67,-0.16 1.36,-0.25 2.07,-0.25 5.96,-0.02 10.81,5.79 10.83,12.97 0.02,7.18 -4.79,13.02 -10.75,13.04 -0.71,0 -1.4,-0.08 -2.07,-0.23 -3.69,-0.86 -7.2,1.97 -7.19,5.76l0.04 11.94c0.01,3.25 2.66,5.88 5.91,5.87l11.85 -0.04c3.75,-0.01 6.48,-3.47 5.74,-7.14 -0.12,-0.57 -0.18,-1.17 -0.18,-1.77 -0.02,-5.96 5.79,-10.81 12.97,-10.83 7.18,-0.02 13.02,4.79 13.04,10.75 0,0.6 -0.06,1.19 -0.17,1.77 -0.72,3.68 2.03,7.12 5.78,7.11l11.85 -0.04c3.25,-0.01 5.88,-2.66 5.87,-5.91l-0.05 -16.92c-1.34,-1.63 -3.54,-2.51 -5.82,-2.04 -0.57,0.12 -1.16,0.18 -1.76,0.18 -5.96,0.03 -10.82,-5.77 -10.85,-12.96 -0.04,-7.18 4.76,-13.03 10.72,-13.06 0.6,-0 1.19,0.05 1.76,0.16 2.32,0.45 4.54,-0.48 5.86,-2.17l-0.05 -14.09c-0.01,-3.25 -2.66,-5.88 -5.91,-5.87l-60.89 0.2c-3.25,0.01 -5.88,2.66 -5.87,5.91l0.04 11.94z"/>
 </g>
</svg>
